<?xml version="1.0" encoding="UTF-8" standalone="no"?>
<!-- Creator: CorelDRAW -->
<svg xmlns:dc="http://purl.org/dc/elements/1.1/" xmlns:cc="http://creativecommons.org/ns#" xmlns:rdf="http://www.w3.org/1999/02/22-rdf-syntax-ns#" xmlns:svg="http://www.w3.org/2000/svg" xmlns="http://www.w3.org/2000/svg" xmlns:sodipodi="http://sodipodi.sourceforge.net/DTD/sodipodi-0.dtd" xmlns:inkscape="http://www.inkscape.org/namespaces/inkscape" xml:space="preserve" width="401.29794" height="496.06439" shape-rendering="geometricPrecision" text-rendering="geometricPrecision" image-rendering="optimizeQuality" clip-rule="evenodd" viewBox="0 0 11325520 14000039" id="svg2" sodipodi:version="0.32" inkscape:version="0.47 r22583" sodipodi:docname="ZZ1.svg" inkscape:output_extension="org.inkscape.output.svg.inkscape" version="1.1" style="fill-rule:evenodd"><metadata id="metadata53"><rdf:RDF><cc:Work rdf:about=""><dc:format>image/svg+xml</dc:format><dc:type rdf:resource="http://purl.org/dc/dcmitype/StillImage"/></cc:Work></rdf:RDF></metadata><defs id="defs51"><inkscape:perspective sodipodi:type="inkscape:persp3d" inkscape:vp_x="0 : 256.88977 : 1" inkscape:vp_y="0 : 1000 : 0" inkscape:vp_z="418.11023 : 256.88977 : 1" inkscape:persp3d-origin="209.05511 : 171.25985 : 1" id="perspective38"/></defs><sodipodi:namedview inkscape:window-height="968" inkscape:window-width="1280" inkscape:pageshadow="2" inkscape:pageopacity="0.0" guidetolerance="10.0" gridtolerance="10.0" objecttolerance="10.0" borderopacity="1.0" bordercolor="#666666" pagecolor="#ffffff" id="base" inkscape:zoom="1.4558774" inkscape:cx="222.84636" inkscape:cy="254.08486" inkscape:window-x="-4" inkscape:window-y="-4" inkscape:current-layer="svg2" showgrid="false" inkscape:window-maximized="0"/>
 <g id="Layer_x0020_1" transform="translate(-229600.18,-257040.31)">
  <metadata id="CorelCorpID_0Corel-Layer"/>
  <path d="m 11555100,276840 0,10400600 -70,0 c 210,12820 56220,2498680 -3044110,2842530 l -140,0 -640,60 c -23440,2420 -72180,3970 -140800,6120 -493670,15530 -2031450,63950 -2460590,706430 l -16370,24500 -16410,-24500 -1640,-2440 -30,20 c -431420,-640180 -1965880,-688490 -2458920,-704010 -69270,-2180 -118260,-3730 -141440,-6180 l -140,0 C 173470,13176120 229480,10690260 229690,10677440 l -70,0 0,-10400600 0,-19800 19800,0 11285900,0 19800,0 0,19800 z" id="path6" style="fill:#0077b9;fill-rule:nonzero"/>
  <path d="m 11535300,276840 0,10400600 c 0,0 59400,2480630 -3026540,2822880 -186680,19800 -2121400,-19800 -2616400,721280 -495000,-741080 -2429720,-701480 -2616400,-721280 C 190020,13158070 249420,10677440 249420,10677440 l 0,-10400600 11285900,0 z" id="path8" style="fill:#ffffff"/>
  <path d="m 11303400,610610 0,9919700 c 0,0 56570,2364660 -2887940,2689950 -175370,19800 -2022410,-19800 -2494770,687330 -469540,-707130 -2316580,-667530 -2494780,-687330 C 484220,12894970 537970,10530310 537970,10530310 l 0,-9919700 10765400,0 z" id="path10" style="fill:#0077b9"/>
  <polygon points="7747900,8210910 4113230,8210910 4113230,9263120 3457000,9263120 3457000,10431300 8395640,10431300 8395640,9263120 7747900,9263120 " id="polygon12" style="fill:#ffffff;stroke:#ffffff;stroke-width:35560"/>
  <polygon points="6500520,9175440 7660220,9175440 7660220,8318390 6500520,8318390 " id="polygon14" style="fill:#0077b9"/>
  <polygon points="6588200,10332300 8316440,10332300 8316440,9350810 6588200,9350810 " id="polygon16" style="fill:#0077b9"/>
  <path d="m 6511830,6082880 0,272500 c 0,0 -130110,28290 -130110,99000 0,67880 0,96170 -48090,107480 0,0 -39600,28290 -8480,99000 0,0 28280,39600 28280,96170 0,0 99000,39600 99000,178200 l 67890,0 0,206490 -127290,0 c 0,0 -11310,19800 -11310,48080 0,31110 -28290,147090 -8490,178200 19800,28280 59400,67880 79200,96170 19800,31110 243260,121630 282860,571370 11310,107480 70710,135770 217790,175370 l -2042200,0 c 127280,-39600 263050,-67890 274360,-175370 39600,-449740 265890,-540260 282860,-571370 19800,-28290 59400,-67890 79200,-96170 19800,-31110 -8490,-147090 -8490,-178200 0,-28280 -11310,-48080 -11310,-48080 l -127290,0 0,-206490 67890,0 c 0,-138600 99000,-178200 99000,-178200 0,-56570 31110,-96170 31110,-96170 28290,-70710 -11310,-99000 -11310,-99000 -48090,-11310 -48090,-39600 -48090,-107480 0,-70710 -127280,-99000 -127280,-99000 l 0,-267260 c -138070,-13870 -237600,-26910 -237600,-26910 -59400,8490 -294170,-87680 -294170,-87680 -67880,0 -147080,-59400 -147080,-59400 l -25460,-11320 c -248910,0 -206480,-113140 -206480,-113140 -141430,-2830 -254570,-155570 -254570,-155570 -132940,-25460 -214970,-166880 -214970,-166880 -132940,-19800 -178200,-186690 -178200,-186690 -53740,-11310 -141430,-178190 -141430,-178190 -39600,5650 -127280,-141430 -127280,-141430 -127290,-99000 -181030,-305480 -181030,-305480 -113140,-87690 -152740,-313970 -178200,-347920 -65050,-90510 -84850,-155570 -101820,-181020 -45260,-59400 -39600,-265890 -59400,-345080 -19800,-73550 -14150,-56580 -39600,-234770 -31120,-206490 -45260,-367710 -45260,-367710 5660,-138600 0,-285690 0,-285690 0,0 5660,-101820 5660,-181020 0,-79200 39600,-206490 -39600,-325290 -79200,-115970 -39600,-246080 99000,-294160 132940,-48090 285680,-39600 362050,0 79200,39590 118800,200820 39600,280020 -79200,79200 -16970,302660 -33940,381850 -14150,70720 25450,291340 25450,291340 28290,39600 14150,87690 39600,118800 48090,56570 14150,107490 14150,107490 0,0 -14150,79200 -5660,135770 11310,59400 59400,127280 59400,127280 -11320,90520 8480,198000 8480,198000 0,0 73550,166880 118800,274370 28290,67880 5660,87680 84860,198000 0,0 28290,181020 42430,200820 0,0 67880,121630 127280,209320 0,0 79200,73540 124460,149910 0,0 132940,107480 200820,220630 0,0 155570,42420 192350,132940 14140,36770 209310,115970 342250,229110 19800,16970 186680,104650 220630,107480 0,0 127280,33950 178190,84860 0,0 234770,48090 274370,67880 0,0 116600,26350 187250,36070 3920,-92460 27720,-242550 27720,-242550 -7090,-9930 -13120,-32680 -18290,-62940 -75660,-9120 -114650,-19090 -114650,-19090 -76370,2830 -282850,-90510 -282850,-90510 -198000,-16970 -254570,-107480 -254570,-107480 -132940,-19800 -186690,-107490 -186690,-107490 -56570,-8480 -172540,-99000 -172540,-99000 -73540,-8480 -158400,-161230 -158400,-161230 -19800,-14140 -113140,-79190 -113140,-79190 -101830,-48090 -200820,-294170 -226280,-328120 -62230,-90510 -82030,-155570 -101830,-181020 -45260,-59400 -127280,-237600 -147080,-313970 -19800,-76370 -42430,-107490 -67890,-285680 -31110,-206490 -56570,-427110 -56570,-427110 5660,-138600 -8480,-217800 -8480,-217800 0,0 -5660,-130110 -5660,-209310 0,-79200 -48090,-265890 -127290,-384690 -79200,-115970 19800,-214970 158400,-263050 132940,-48090 313970,-11310 393170,28290 76370,39590 115970,200820 36770,280020 -76370,79200 -16970,302660 -33940,381850 -14140,70720 -14140,280030 -14140,280030 31110,39600 19800,50910 19800,90510 0,39600 25450,115970 25450,115970 0,0 14150,79200 2830,138600 -11310,70720 19800,127290 19800,127290 79200,19800 59400,265880 59400,265880 0,0 101830,127280 147080,234770 31120,67880 93350,138600 172550,246080 0,0 118790,121630 132940,141430 0,0 59400,53740 118800,144260 0,0 147080,53740 189510,127280 0,0 158400,19800 212140,73540 0,0 195170,93340 260220,121630 23120,11560 64570,25070 100120,34290 14060,-70930 41310,-122600 41310,-141780 0,-28280 -19800,-67880 -39600,-98990 -4370,-7300 -4410,-29070 -2260,-60230 -306650,-21280 -519290,-195490 -594560,-273540 -79200,-79200 -39600,-96170 -99000,-115970 -59400,-19800 -127280,-166890 -186680,-226290 -53750,-53740 -39600,-166880 -99000,-294160 -87690,-195170 -107490,-444090 -107490,-444090 -79200,-96170 -19800,-234770 -19800,-234770 0,0 -19800,-178190 -19800,-254560 0,-79200 -48080,-265890 -127280,-384690 -79200,-115970 19800,-214970 158400,-263050 132940,-48090 500650,0 577020,36770 79200,39600 99000,178200 19800,257400 -76370,76370 -175370,254570 -195170,333770 -19800,79200 -19800,342250 -19800,342250 28290,39600 19800,50910 19800,90510 0,36770 -28280,76370 -28280,76370 0,0 36770,206490 96170,246090 59400,39600 39600,138600 39600,138600 79190,19800 118790,206480 118790,206480 0,0 59400,19800 127290,115970 79200,115970 234770,149910 353570,166880 l 2990,490 c -7160,-117820 -14310,-205640 -14310,-243740 0,-50910 31120,-118800 31120,-118800 -11320,-39600 48080,-59400 48080,-59400 0,0 -67880,-67880 -67880,-127280 0,-59400 39600,-99000 39600,-99000 -31120,-39600 39600,-79200 0,-87690 -39600,-11310 -50920,-79200 -59400,-118800 -8490,-39600 48080,-107480 48080,-107480 0,0 31120,0 11320,-39600 -19800,-39600 -59400,-67890 -59400,-99000 0,-28290 67880,-67880 67880,-67880 -19800,-28290 -8480,-79200 -8480,-135770 0,-59400 19800,-110320 19800,-166890 0,-59400 -186690,-198000 -186690,-257400 0,-59400 -39600,-206480 59400,-254570 96170,-48080 234770,-178190 528940,-79190 294170,98990 254570,217790 217800,274360 -39600,59400 -149920,237600 -178200,297000 -28290,56570 -8490,166890 11310,214970 16970,48090 28290,195170 8490,274370 0,0 19800,79200 19800,138600 0,59400 19800,214970 0,246080 0,0 39600,28290 39600,67890 0,39600 -39600,59400 -39600,59400 l -39600,87680 c 0,0 39600,8490 39600,87690 0,79190 -11320,158390 -11320,158390 0,0 -1840,62720 3570,150990 30820,-6510 57470,-12190 75630,-15220 118800,-16970 158400,-8480 274370,-87680 53740,-33940 178200,-166880 178200,-166880 0,0 39600,-186690 118800,-206490 0,0 -19800,-99000 39600,-135770 56570,-39600 87680,-297000 87680,-297000 0,0 0,-28280 0,-67880 0,-39600 -39600,-59400 -11310,-99000 0,0 -19800,-223450 -39600,-302650 -19800,-79200 -115970,-257400 -195170,-333770 -79200,-79200 99000,-265890 175370,-305480 79200,-39600 291340,-36780 424280,11310 135770,48080 130110,127280 96170,263050 -28280,127290 -36770,345090 -36770,424290 0,76370 -19800,254560 -19800,254560 0,0 96170,155570 19800,254570 0,0 0,189520 -90510,384690 -56570,127280 -73540,229110 -127290,282850 -59400,59400 -127280,237600 -186680,257400 -59400,16970 -19800,36770 -96170,115970 -74980,74980 -324900,203220 -620140,247860 11840,106930 18610,220250 16430,333840 15540,-1390 30750,-4550 46490,-10340 39600,-14140 291340,-144250 291340,-144250 53740,-53740 209310,-82030 209310,-82030 45250,-73540 203650,-138600 203650,-138600 56570,-135770 234770,-229110 234770,-229110 14150,-19800 82030,-45260 82030,-45260 56570,-107480 104660,-161220 124460,-234770 28280,-110310 147080,-285680 147080,-285680 0,0 -39600,-206480 39600,-226280 0,0 -8490,-76370 -19800,-147090 -11310,-59400 5660,-138600 5660,-138600 0,0 22630,-76370 22630,-115970 0,-39600 0,-118800 31110,-158390 0,0 -11310,-141430 -25460,-212150 -16970,-79190 -14140,-243250 -93340,-322450 -79200,-79200 19800,-260230 99000,-299830 79200,-39590 147080,-107480 322450,-98990 147090,8480 277200,147080 198000,265880 -79200,118800 -99000,333770 -99000,412970 0,79200 25460,172540 25460,172540 0,0 -14140,76370 -11310,214970 0,0 -14150,260220 -42430,466710 -25460,178190 -50920,209310 -70720,285680 -19800,76370 -101820,353570 -147080,410140 -16970,25450 -36770,93340 -101830,183850 -25460,33950 -113140,220630 -217800,268720 0,0 -76370,79190 -96170,96170 0,0 -70710,144250 -144250,155570 0,0 -127290,59390 -181030,67880 0,0 -5660,59400 -138600,79200 0,0 -118800,121630 -362050,147080 0,0 -246080,101830 -325280,99000 l -9730,-450 c -390,45430 -3590,80770 -12900,93790 0,0 12660,99450 17740,184140 56780,-11730 118030,-28570 118030,-28570 39600,-19790 277200,-67880 277200,-67880 48080,-50910 214960,-65060 214960,-65060 33950,-2830 231950,-82020 251740,-96170 130120,-113140 316800,-172540 333770,-212140 33950,-87680 248910,-172540 248910,-172540 67890,-113140 104660,-161230 104660,-161230 42430,-73540 141430,-206480 141430,-206480 59400,-87680 166880,-192340 166880,-192340 19800,-62230 53740,-200830 53740,-200830 79200,-107480 33950,-138600 65060,-206480 45260,-107490 87690,-274370 87690,-274370 0,0 28280,-99000 19800,-186680 0,0 0,-99000 8480,-158400 11320,-56570 25460,-96170 25460,-96170 0,0 -25460,-90520 25460,-147090 25450,-31110 -19800,-178200 8480,-217790 0,0 31110,-121630 14140,-192350 -16970,-79190 25460,-282850 -53740,-362050 -79200,-79200 -19800,-260230 59400,-299820 79200,-39600 229110,-76380 364880,-28290 135770,48080 175370,206480 96170,322450 -79200,118800 -39600,246090 -39600,325290 0,79200 5660,181020 5660,181020 0,0 25460,138600 31110,274370 0,0 -16970,164060 -45250,367710 -25460,178200 -19800,164060 -39600,237600 -19800,79200 -45260,294170 -87690,353570 -16970,19800 -22620,149910 -93340,248910 -25460,36770 -14140,152740 -127280,240430 0,0 -53750,265880 -183860,364880 0,0 -56570,147080 -96170,141430 0,0 -118800,166880 -172540,178190 0,0 -56570,158400 -166880,175370 0,0 -124460,155570 -294170,186690 0,0 -65060,152740 -206490,158400 0,0 -5650,82020 -246080,82020 -73540,0 -65060,39600 -132940,59400 -67890,19800 -147090,39600 -206480,48090 -44200,8420 -185460,48140 -282860,72580 z" id="path18" style="fill:#ffffff;stroke:#ffffff;stroke-width:7620"/>
  <g id="_24599736">
   <path id="_46086368" d="m 1742910,1297940 c 206750,357630 191540,699420 172540,1103140 0,0 96170,-302660 121630,-557230 25450,-257390 -127290,-506310 -166890,-565710 -39600,-59390 -138600,-359220 -138600,-359220 0,0 -14140,141430 -135770,367710 -124450,226280 -144250,438420 -147080,579850 -8490,217800 203650,738250 220620,766540 22630,48080 8490,687330 8490,687330 -226280,-186680 -328110,-282850 -401650,-398820 -127290,-195170 -178200,-557220 -178200,-557220 0,0 132940,149910 212140,229110 79200,79200 268710,398820 268710,398820 39600,-432770 -627940,-987160 -627940,-987160 0,0 -53740,735420 178200,1088990 155570,240430 568540,412970 568540,412970 l 0,274370 -99000,-62230 c 0,0 31120,-90520 -8480,-158400 0,0 -99000,-79200 -178200,-39600 -76370,39600 -56570,138600 -19800,198000 39600,59400 130110,39600 130110,39600 0,0 132940,118800 166880,200820 19800,48090 8490,746740 8490,746740 -226280,-186680 -299830,-308310 -373370,-424280 -127280,-195170 -206480,-520450 -206480,-520450 0,0 158400,127280 237600,206480 76370,79200 223450,364880 223450,364880 39600,-432770 -627940,-1052220 -627940,-1052220 0,0 -39590,726940 178200,1091820 178200,299830 568540,466710 568540,466710 l 0,268710 -147080,-107480 c 0,0 28280,-87690 -8490,-158400 0,0 -99000,-76370 -178200,-39600 -79200,39600 -59400,138600 -19800,198000 39600,59400 127290,39600 127290,39600 0,0 183850,192340 217790,274370 19800,48080 8490,746730 8490,746730 -226280,-186680 -299830,-308310 -373370,-421450 -127280,-198000 -206480,-520450 -206480,-520450 0,0 158400,127280 237600,203650 76370,79200 223450,364880 223450,364880 39600,-432760 -627940,-1052210 -627940,-1052210 0,0 -39590,726930 178200,1091810 178200,302660 574200,469540 574200,469540 l -5660,285680 -147080,-107480 c 0,0 28280,-87680 -8490,-158400 0,0 -99000,-76370 -178200,-36770 -79200,36770 -59400,135770 -19800,195170 39600,59400 127290,39600 127290,39600 0,0 183850,192340 217790,274370 19800,48080 8490,746730 8490,746730 -226280,-186680 -299830,-308310 -373370,-421450 -127280,-198000 -206480,-520450 -206480,-520450 0,0 158400,127280 237600,206480 76370,76370 223450,362060 223450,362060 39600,-432770 -627940,-1052220 -627940,-1052220 0,0 -39590,726930 178200,1091820 178200,302650 568540,472360 568540,472360 l 0,362060 -147080,-107490 c 0,0 28280,-87680 -8490,-158400 0,0 -99000,-76370 -178200,-39600 -79200,39600 -59400,138600 -19800,198000 39600,59400 127290,39600 127290,39600 0,0 183850,192340 217790,274370 19800,48090 8490,746740 8490,746740 -226280,-186690 -299830,-308320 -373370,-421460 -127280,-198000 -206480,-520450 -206480,-520450 0,0 158400,127290 237600,203660 76370,79190 223450,364880 223450,364880 39600,-432770 -627940,-1052220 -627940,-1052220 0,0 -39590,726940 178200,1091820 178200,302650 568540,461050 568540,461050 l 0,362050 -147080,-107480 c 0,0 28280,-87690 -8490,-155570 0,0 -99000,-79200 -178200,-39600 -79200,39600 -59400,135770 -19800,195170 39600,59400 127290,39600 127290,39600 0,0 183850,195170 217790,274370 19800,50910 8490,746730 8490,746730 -226280,-186680 -299830,-308310 -373370,-421450 -127280,-195170 -206480,-520450 -206480,-520450 0,0 158400,127280 237600,206480 76370,79200 223450,362060 223450,362060 39600,-429940 -627940,-1049390 -627940,-1049390 0,0 -39590,726930 178200,1088980 178200,302660 588340,472370 588340,472370 19800,195170 59400,452570 59400,452570 -178200,-99000 -138600,-178200 -138600,-178200 0,0 19800,-79200 -39600,-138600 -56570,-56570 -115970,-96170 -195170,-56570 -79200,39600 -39600,115970 -19800,175370 19800,59400 118800,99000 118800,99000 59400,79200 342250,294170 342250,294170 246090,698650 893820,865530 893820,865530 l -124450,-427110 c 0,0 -523280,-132940 -565710,-407310 0,0 -25460,-189510 73540,-373370 0,0 152740,-31110 166890,-90510 11310,-59400 5650,-141430 -79200,-172540 -82030,-31110 -115970,-16970 -169720,48080 -50910,65060 -22620,110320 -22620,110320 0,0 96170,124450 -70720,240420 0,0 -104650,-296990 -104650,-494990 0,0 135770,-407310 319620,-707140 76370,-124450 243260,-367710 243260,-367710 0,540250 -373370,1021110 -373370,1021110 520450,-305490 560050,-1021110 560050,-1131420 0,-107490 -62230,-398830 -62230,-398830 0,0 -356390,478030 -463880,693000 -107480,212140 -149910,325280 -229110,557220 0,0 -14140,-438420 0,-489340 25460,-84850 217800,-305480 217800,-305480 0,0 87680,11310 121620,-53740 33950,-62230 42430,-161230 -39600,-192340 -82020,-31120 -172540,56570 -172540,56570 -31110,73540 8490,158400 8490,158400 l -135770,121620 5660,-444080 c 0,0 135770,-367710 319620,-667530 76370,-124460 243260,-370540 243260,-370540 0,540250 -373370,1021100 -373370,1021100 520450,-302650 531760,-1040900 531760,-1148390 0,-107480 -33940,-379020 -33940,-379020 0,0 -376190,449740 -483680,661880 -107480,212140 -130110,316790 -209310,545910 0,0 -14140,-396000 0,-446910 25460,-84860 217800,-305490 217800,-305490 0,0 87680,8490 121620,-53740 33950,-62230 42430,-161230 -39600,-192340 -82020,-31110 -172540,56570 -172540,56570 -31110,73540 8490,158400 8490,158400 l -135770,121630 5660,-455400 c 0,0 135770,-367710 319620,-667540 76370,-124450 243260,-370530 243260,-370530 0,540250 -373370,1021100 -373370,1021100 520450,-302650 560050,-1021100 560050,-1128590 0,-107480 -62230,-398820 -62230,-398820 0,0 -356390,429930 -463880,642080 -107480,212140 -149910,336590 -229110,565700 0,0 -14140,-395990 0,-446910 25460,-84850 217800,-305480 217800,-305480 0,0 87680,8490 121620,-53740 33950,-62230 42430,-161230 -39600,-192340 -82020,-31120 -172540,56570 -172540,56570 -31110,73540 8490,158400 8490,158400 l -135770,121620 5660,-387510 c 0,0 107480,-379020 291340,-676020 76370,-124450 183850,-299820 183850,-299820 0,537420 -305480,910790 -305480,910790 520450,-302660 500650,-862710 500650,-970190 0,-110320 -14140,-469540 -14140,-469540 0,0 -362060,381850 -472370,593990 -107480,212140 -110310,345090 -189510,577030 0,0 -14140,-387510 0,-438430 25460,-84850 138600,-277200 138600,-277200 0,0 96170,33950 132940,-22620 48080,-73550 62230,-130120 -31120,-183860 -76370,-45260 -161220,28290 -161220,28290 -31120,73540 5660,138600 5660,138600 l -84860,101820 5660,-316790 c 0,0 67880,-379030 251740,-678850 76370,-124460 223450,-359230 223450,-359230 0,540250 -285680,874020 -285680,874020 452570,-325280 531760,-905130 531760,-1012620 0,-107480 -33940,-432770 -33940,-432770 0,0 -412970,435600 -523280,647740 -107480,212140 -141430,396000 -169710,625110 0,0 -14140,-435600 0,-486510 25460,-84860 107480,-237600 107480,-237600 0,0 70720,19800 104660,-42430 33940,-62220 2830,-132940 -59400,-164050 -79200,-42430 -113140,16970 -113140,16970 -31120,73540 5660,158400 5660,158400 l -65060,53740 -5660,-319630 c 0,0 104660,-356390 288510,-656220 76370,-124450 271540,-370540 271540,-370540 0,540260 -294170,854220 -294170,854220 520460,-302650 480860,-786330 480860,-893820 0,-288510 -33950,-373360 -33950,-373360 0,0 -444080,398820 -551560,613790 -107490,212140 -147090,427110 -223460,659050 -1880,-656220 -3760,-1312440 -5650,-1968670 z" style="fill:#ffffff"/>
   <path id="_24599776" d="m 2189820,11452400 c 0,0 226280,166880 282850,178190 59400,8490 70710,0 59400,56580 -8490,59390 -19800,70710 -79200,31110 -56570,-39600 -183850,-118800 -263050,-265880 z" style="fill:#0077b9"/>
  </g>
  <g id="_24600528">
   <path id="_24598960" d="m 10138080,10417170 c 0,0 -18726,221506 -73550,506310 178200,-99000 138600,-178200 138600,-178200 0,0 -19800,-79200 39600,-138600 59400,-56570 118800,-96170 195170,-56570 79200,39600 39600,115970 19800,175370 -19800,59400 -115970,99000 -115970,99000 -59400,79200 -345080,294170 -345080,294170 -246090,698650 -893820,865530 -893820,865530 l 127280,-427110 c 0,0 520450,-132940 562880,-407310 0,0 28290,-189510 -73540,-373370 0,0 -152740,-31110 -164060,-90510 -14140,-59400 -5650,-141430 76370,-172540 82030,-31110 115970,-16970 169720,48080 50910,65060 25450,110320 25450,110320 0,0 -96170,124450 67890,240420 81816.3,-158176 94215.4,-434396 94215.4,-434396 0,0 -382725.4,-176564 -563755.4,-479224 -214970,-362050 -175370,-1088980 -175370,-1088980 0,0 667540,619450 627940,1049390 0,0 -147080,-282860 -226280,-362060 -79200,-79200 -234770,-206480 -234770,-206480 0,0 79200,325280 206480,520450 73540,113140 147090,234770 373370,421450 0,0 8480,-695820 -11310,-746730 -31120,-79200 -214970,-274370 -214970,-274370 0,0 -87690,19800 -127290,-39600 -39600,-59400 -59400,-155570 19800,-195170 76370,-39600 175370,39600 175370,39600 39600,67880 11310,155570 11310,155570 l 147090,107480 0,-362050 c 0,0 -390340,-158400 -571370,-461050 -214970,-364880 -175370,-1091820 -175370,-1091820 0,0 667540,619450 627940,1052220 0,0 -147080,-285690 -226280,-364880 -79200,-76370 -234770,-203660 -234770,-203660 0,0 79200,322450 206480,520450 73540,113140 147090,234770 373370,421460 0,0 8480,-698650 -11310,-746740 -31120,-82030 -214970,-274370 -214970,-274370 0,0 -87690,19800 -127290,-39600 -39600,-59400 -59400,-158400 19800,-198000 76370,-36770 175370,39600 175370,39600 39600,70720 11310,158400 11310,158400 l 147090,107490 0,-362060 c 0,0 -390340,-169710 -571370,-472360 -214970,-364890 -175370,-1091820 -175370,-1091820 0,0 667540,619450 627940,1052220 0,0 -147080,-285690 -226280,-362060 -79200,-79200 -234770,-206480 -234770,-206480 0,0 79200,322450 206480,520450 73540,113140 147090,234770 373370,421450 0,0 8480,-698650 -11310,-746730 -31120,-82030 -214970,-274370 -214970,-274370 0,0 -87690,19800 -127290,-39600 -39600,-59400 -59400,-158400 19800,-195170 76370,-39600 175370,36770 175370,36770 39600,70720 11310,158400 11310,158400 l 147090,107480 5660,-285680 c 0,0 -396000,-166880 -577030,-469540 -214970,-364880 -175370,-1091810 -175370,-1091810 0,0 667540,619450 627940,1052210 0,0 -147080,-285680 -226280,-364880 -79200,-76370 -234770,-203650 -234770,-203650 0,0 79200,322450 206480,520450 73540,113140 147090,234770 373370,421450 0,0 8480,-698650 -11310,-746730 -31120,-82030 -214970,-274370 -214970,-274370 0,0 -87690,19800 -127290,-39600 -39600,-59400 -59400,-158400 19800,-198000 76370,-36770 175370,39600 175370,39600 39600,70710 11310,158400 11310,158400 l 147090,107480 0,-268710 c 0,0 -390340,-166880 -571370,-466710 -214970,-364880 -175370,-1091820 -175370,-1091820 0,0 667540,619450 627940,1052220 0,0 -147080,-285680 -226280,-364880 -79200,-79200 -234770,-206480 -234770,-206480 0,0 79200,325280 206480,520450 73540,115970 147090,237600 373370,424280 0,0 8480,-698650 -11310,-746740 -31120,-82020 -166890,-200820 -166890,-200820 0,0 -87680,19800 -127280,-39600 -39600,-59400 -59400,-158400 19800,-198000 79200,-39600 178190,39600 178190,39600 36780,67880 8490,158400 8490,158400 l 99000,62230 0,-274370 c 0,0 -412970,-172540 -571370,-412970 -229110,-353570 -175370,-1088990 -175370,-1088990 0,0 667540,554390 627940,987160 0,0 -192340,-319620 -268710,-398820 -79200,-79200 -212140,-229110 -212140,-229110 0,0 48080,362050 175370,557220 76370,115970 178200,212140 404480,398820 0,0 14140,-639250 -11310,-687330 -14150,-28290 -226290,-548740 -220630,-766540 5660,-141430 25460,-353570 147080,-579850 124460,-226280 138600,-367710 138600,-367710 0,0 99000,299830 138600,359220 36770,59400 189510,308320 166880,565710 -25450,254570 -124450,557230 -124450,557230 21320,-402830 35830,-747500 -172540,-1103140 l 0,0 c 1890,656230 3770,1312450 5650,1968670 79200,-231940 115970,-446910 226290,-659050 107480,-214970 551560,-613790 551560,-613790 0,0 33950,84850 33950,373360 0,107490 36770,591170 -483680,893820 0,0 296990,-313960 296990,-854220 0,0 -198000,246090 -274370,370540 -183850,299830 -285680,656220 -285680,656220 l 2830,319630 67880,-53740 c 0,0 -39600,-84860 -5650,-158400 0,0 33940,-59400 113140,-16970 62230,31110 90510,101830 59400,164050 -33940,62230 -104660,42430 -104660,42430 0,0 -84850,152740 -107480,237600 -14140,50910 0,486510 0,486510 28280,-229110 59400,-412970 169710,-625110 107490,-212140 520450,-647740 520450,-647740 0,0 33940,325290 33940,432770 0,107490 -76370,687340 -528930,1012620 0,0 285680,-333770 285680,-874020 0,0 -149910,234770 -223450,359230 -186690,299820 -254570,678850 -254570,678850 l -5660,316790 87680,-101820 c 0,0 -39600,-65060 -5650,-138600 0,0 84850,-73550 161220,-28290 90520,53740 76370,110310 28290,183860 -36770,56570 -130110,22620 -130110,22620 0,0 -115970,192350 -138600,277200 -14140,50920 0,438430 0,438430 76370,-231940 79200,-364890 189510,-577030 107480,-212140 472370,-593990 472370,-593990 0,0 14140,359220 14140,469540 0,107480 19800,667530 -500650,970190 0,0 305480,-373370 305480,-910790 0,0 -110310,175370 -186680,299820 -181030,297000 -291340,676020 -291340,676020 l -5660,387510 135770,-121620 c 0,0 -36770,-84860 -5660,-158400 0,0 90520,-87690 172540,-56570 82030,31110 70720,130110 39600,192340 -33940,62230 -124450,53740 -124450,53740 0,0 -192340,220630 -214970,305480 -14140,50920 0,446910 0,446910 76370,-229110 118800,-353560 229110,-565700 107480,-212150 461050,-642080 461050,-642080 0,0 65060,291340 65060,398820 0,107490 -39600,825940 -560050,1128590 0,0 373370,-480850 373370,-1021100 0,0 -166890,246080 -243260,370530 -183850,299830 -322450,667540 -322450,667540 l -5660,455400 135770,-121630 c 0,0 -36770,-84860 -5660,-158400 0,0 90520,-87680 172540,-56570 82030,31110 70720,130110 39600,192340 -33940,62230 -124450,53740 -124450,53740 0,0 -192340,220630 -214970,305490 -14140,50910 0,446910 0,446910 76370,-229120 99000,-333770 209310,-545910 107480,-212140 480850,-661880 480850,-661880 0,0 33940,271540 33940,379020 0,107490 -8480,845740 -528930,1148390 0,0 373370,-480850 373370,-1021100 0,0 -166890,246080 -243260,370540 -183850,299820 -322450,667530 -322450,667530 l -5660,444080 135770,-121620 c 0,0 -36770,-84860 -5660,-158400 0,0 90520,-87690 172540,-56570 82030,31110 70720,130110 39600,192340 -33940,65050 -124450,53740 -124450,53740 0,0 -192340,220630 -214970,305480 -14140,50920 0,489340 0,489340 76370,-231940 118800,-345080 229110,-557220 107480,-214970 461050,-693000 461050,-693000 0,0 65060,291340 65060,398830 0,110310 -39600,825930 -560050,1131420 0,0 373370,-480860 373370,-1021110 0,0 -166890,243260 -243260,367710 -183850,299830 -322450,707140 -322450,707140 z" sodipodi:nodetypes="cccccscccccccscccccccscccccsccccccccccccccsccccccccccccccsccccccccccccccsccccccccscccccsscccccccccccccccccccccccsccccccccccccccscccccccsccccccscccccccsccccccscccccccsccccccscccccccsccccccscccc" style="fill:#ffffff"/>
   <path id="_25242176" d="m 9654340,11452400 c 0,0 -226280,166880 -285680,178190 -59400,8490 -67890,0 -59400,56580 11310,59390 19800,70710 79200,31110 59400,-39600 186680,-118800 265880,-265880 z" style="fill:#0077b9"/>
  </g>
  <g id="_25243192">
   <path id="_24600336" d="m 5841470,11472200 -107490,364880 c 0,0 5660,101830 124460,101830 115970,0 528940,0 528940,0 l 0,760870 c 0,0 299820,-118790 313960,-127280 14150,-11310 25460,-14140 25460,-79200 0,-62230 0,-840080 0,-840080 0,0 14140,-96170 -79200,-96170 -93340,0 -619450,0 -642080,0 -25460,0 -124450,-31110 -164050,-84850 z m 1199300,28280 -141430,325280 c 0,0 33940,65060 132940,84860 96170,19800 16970,93340 0,107480 -19800,14150 -39600,59400 -39600,107490 0,48080 -11310,574190 -11310,574190 0,0 989990,-132940 1060700,-147080 50920,-8490 50920,-19800 79200,-45260 28290,-22630 186690,-214970 200830,-234770 14140,-19800 14140,-25450 19800,-73540 5660,-48080 39600,-642080 39600,-642080 l -274370,0 -99000,336600 107490,19800 c 0,0 14140,147080 -8490,206480 -25460,59400 -50910,104660 -93340,124460 -45260,19800 -274370,56570 -274370,56570 0,0 200830,-707140 203650,-743910 l -356390,0 -118800,316800 113140,31110 c 0,0 -161230,393170 -195170,427110 0,0 -118800,-152740 -50910,-384680 28280,-90510 76370,-288510 104650,-336600 19800,-33940 -36770,-53740 -73540,-53740 -39600,0 -144250,22630 -325280,-56570 z m 1581150,-36770 c 0,0 79200,36770 138600,48090 56570,8480 195170,-11320 254570,-11320 59400,0 99000,50920 67890,149910 -28290,96170 -127290,401660 -96170,509140 l -325290,87690 39600,-322460 c 0,0 -197990,19800 -237590,-19800 l 158390,-441250 z m -3716700,907960 -127290,319630 -497820,0 c 0,0 70710,-364880 59400,-483680 -8490,-115970 -67890,-390340 -67890,-390340 0,0 147090,-206490 155570,-237600 11320,-28280 50920,-39600 90520,-8480 39600,28280 528940,469530 715620,548730 0,0 19800,-147080 0,-175370 -19800,-31110 11310,-31110 -39600,-39600 -48090,-11310 -107480,-11310 -135770,-31110 0,0 115970,-294170 127280,-362050 0,0 59400,19800 115970,19800 59400,0 198000,0 257400,8480 59400,11320 48090,31120 48090,79200 0,48090 0,305480 0,345080 0,73540 -25460,96170 -53750,127290 -28280,28280 -121620,87680 -121620,87680 0,0 -39600,67890 0,87690 36770,19800 135770,90510 186680,107480 l -149910,305480 c 0,0 -8490,19800 -56570,-8480 -50920,-31120 -758050,-560050 -758050,-560050 0,0 -19800,0 -19800,39600 0,39600 0,220620 0,220620 l 271540,0 z m -1954530,-1798950 -65050,339420 c 0,0 206480,-19800 39600,118800 0,0 11310,48090 11310,226290 0,175370 0,588330 -39600,667530 l 834420,0 c 39600,8490 48090,28290 48090,96170 0,70720 50910,237600 -87690,285690 -138600,50910 -214970,59400 -274370,59400 l -59390,333760 c 0,0 373360,-118790 472360,-186680 96170,-67880 234770,-118800 234770,-322450 0,-206490 0,-571370 48090,-639250 l -823110,0 0,-50920 c 0,0 0,-514790 2830,-540250 25460,-124460 36770,-248910 104650,-294170 28290,-19800 33950,-76370 -39590,-67880 -39600,5650 -347920,25450 -407320,-25460 z" style="fill:#ffffff"/>
   <path id="_25243232" d="m 3035550,10657600 14140,209310 c 0,0 214970,-28290 73550,87680 0,0 -8490,175370 -8490,325290 0,149910 0,478020 -31110,545900 l 760870,0 c 31120,8490 39600,25460 39600,82030 0,59400 45260,396000 -67880,444080 -124460,48090 -198000,82030 -248910,99000 l -31120,104660 c 0,0 308310,-118800 384690,-183860 50910,-39600 53740,-84850 53740,-257390 0,-175370 -25460,-330940 16970,-387520 l -783510,0 0,-42420 c 0,0 5660,-735420 11320,-758050 19800,-107490 0,-147090 56570,-183860 25450,-16970 28280,-67880 -33950,-59400 -31110,5660 -192340,11320 -206480,-25450 z m 2466490,1767840 -67880,124450 c 0,0 -22630,-22630 -59400,-45260 -39600,-22620 -814620,-562880 -814620,-562880 0,0 -5660,56580 -5660,87690 0,31110 8480,424280 8480,424280 l 220630,0 -67880,110310 -265890,0 c 0,0 33950,-254560 28290,-345080 -8490,-101830 -31120,-364880 -31120,-364880 0,0 36780,-42430 45260,-65060 8490,-25450 39600,-33940 67890,-8480 65050,59400 540250,511960 941900,644910 z m 458230,-786340 -22630,99000 c 0,0 2830,84860 96170,84860 96170,0 480850,0 480850,0 l 0,667530 c 0,0 82030,-16970 93340,-25460 11320,-5650 19800,-11310 19800,-62220 0,-50920 0,-630770 0,-630770 0,0 5660,-65050 -67880,-65050 -76370,0 -452570,0 -469540,0 -19800,0 -99000,-22630 -130110,-67890 z m 2774800,56570 c 0,0 45250,-2830 87680,5660 39600,5660 48090,2830 87690,2830 42420,0 56570,2830 33940,73540 -19800,67880 -48090,200830 -48090,282850 l -79200,22630 28290,-240420 c 0,0 -76370,31110 -166880,0 l 56570,-147090 z m -3332030,359230 c 0,0 25460,-186690 11320,-209320 -16980,-22620 5650,-22620 -31120,-31110 -39600,-8490 -99000,11310 -121630,-2830 0,0 42430,-101830 50920,-155570 0,0 45260,14140 90510,14140 45260,0 31120,-2820 76370,-2820 48090,0 39600,59390 39600,96170 0,39600 0,39600 0,70710 0,59400 -5650,130110 -22630,149910 -22620,25460 -93340,70720 -93340,70720 z m 1756530,-387510 -67890,147080 c 0,0 36770,19800 115970,36770 53750,14140 -33940,130110 -50910,141430 -14140,11310 -25460,70710 -25460,110310 0,39600 -8480,461050 -8480,461050 0,0 825930,-107480 882500,-118790 39600,-8490 39600,-14150 65060,-33950 22630,-19800 172540,-158400 183850,-175370 11320,-14140 28290,-87680 31120,-127280 2830,-39600 33940,-393170 33940,-393170 l -132940,-2830 -45260,158400 96170,5660 c 0,0 -14140,265880 -33940,311140 -16970,48080 -121630,147080 -155570,161220 -36770,16980 -421450,67890 -421450,67890 0,0 214970,-667540 217790,-698650 l -178190,0 -59400,115970 132940,0 c 0,0 -217800,560050 -246080,585510 0,0 -223460,36770 -237600,5660 -22630,-50920 -16970,-350740 2830,-418630 22620,-73540 62220,-231940 82020,-271540 16980,-28280 -25450,-42430 -59400,-42430 -31110,0 -48080,-19800 -121620,-25450 z" style="fill:#0077b9"/>
  </g>
  <path d="m 5700040,2352990 c 3690,-2500 7400,-4750 11180,-6770 60040,-32160 131440,-6050 195300,-30000 25460,-11310 36770,-42430 67890,-42430 -5660,-25460 25450,-28280 28280,-48080 8490,-33950 -5650,-65060 -8480,-99000 124450,2830 237600,138600 198000,251740 -14150,39600 -39600,73540 -76380,107480 -42420,39600 -53740,104660 -67880,164060 -33940,135770 70710,254570 50910,390340 -8480,48080 -16970,93340 -56570,127280 -25450,19800 -59400,19800 -84850,5660 -56570,-25460 -135770,14140 -169720,-65060 79200,-16970 155570,-48080 183860,-127280 31110,-79200 25460,-164060 5660,-243260 -25460,-101820 14140,-212140 -42430,-288510 -45260,-56570 -147090,-50910 -223460,-82030 -8480,-2820 -31110,-22620 -19800,-42420 2830,-2830 11320,0 19800,0 l -11310,28280 z m -2347690,-48080 c 5660,-28290 -14140,-70720 -33940,-53750 -45260,48090 -84860,79200 -149920,101830 -22630,5660 -65050,31120 -39600,67890 25460,33940 79200,36770 101830,73540 33940,53740 70710,115970 31110,181030 -11310,22620 -28280,36770 -36770,62220 2830,0 5660,0 11320,0 -8490,0 -16970,-2830 -19800,0 -36770,104660 -11320,248910 -118800,313970 2830,110310 138600,70710 206480,56570 14150,-200820 59400,-398820 19800,-608130 -11310,-73550 8490,-138600 28290,-206490 0,2830 0,8490 0,11320 z m -115970,1267180 c 4550,420 9240,730 13960,940 5690,250 11460,390 17290,360 55210,-290 114300,-14730 135630,-55040 33940,-70710 5660,-161230 8490,-243250 -14150,2820 -28290,-19800 -36770,-5660 -42430,48080 -16970,130110 -65060,166880 -42430,33950 -99000,53750 -124460,90520 -26350,39540 52940,17650 82170,46550 2120,2110 3980,4490 5520,7190 l -36770,-8490 z m 144250,625110 c 93350,-11310 124460,-118800 93350,-192340 -8490,-19800 -5660,-59400 -42430,-59400 5650,-19800 -14150,-28280 -22630,-39600 -16970,-19800 -48090,-25460 -76370,-19800 -5660,2830 -14140,14140 -8490,16970 28290,16970 67890,39600 56570,79200 -11310,42430 -73540,16970 -67880,90520 -22630,-14150 -19800,25450 -39600,19800 -8490,65050 56570,50910 99000,79190 5650,5660 8480,25460 8480,25460 z m -28280,257400 c 101830,67880 229110,-19800 302650,-99000 11320,-11310 19800,-31110 11320,-48090 -14150,-22620 -42430,-14140 -56570,-5650 -84860,50910 -172550,76370 -254570,124450 -8490,5660 5650,19800 -2830,28290 z m 265880,263050 c -28280,8490 -59400,-2820 -87680,5660 -22630,5660 -42430,22630 -28290,45260 14140,19800 48090,36770 59400,39600 90510,28280 144260,-70720 203660,-138600 8480,-11320 -8490,-16970 -8490,-28290 -31110,2830 -53740,22630 -76370,33950 -25460,14140 -36770,31110 -62230,42420 z m 84860,161230 c -28290,14140 -87690,33940 -67890,62230 16970,22630 50920,56570 87690,31110 33940,-25450 67880,-39600 87680,-76370 14140,-25460 28290,-56570 22630,-87680 -45260,22630 -87680,53740 -130110,70710 z m 164050,311140 c 22630,19800 28290,62230 65060,48090 39600,-16980 39600,-73550 70710,-90520 16970,-5650 42430,-14140 53750,-28280 8480,-8490 8480,-33950 0,-42430 -25460,-25460 -59400,-33940 -79200,-70710 -14150,-25460 -53750,-16980 -70720,2820 -8480,5660 0,31120 -5650,42430 -16980,31120 -59400,14140 -84860,25460 -14140,8480 -31110,22630 -19800,45260 16970,28280 39600,50910 76370,39590 -2830,11320 -11310,25460 -5660,28290 z m 319630,282850 c 130110,-8480 161230,-144250 231940,-234760 19800,-25460 -14140,-62230 -31120,-50920 -56570,39600 -93340,135770 -166880,107490 -25460,-11320 8490,-50920 -5660,-70720 -16970,-22630 -48080,-33940 -79200,-5650 -11310,14140 -11310,28280 -16970,42420 -5650,14150 -25450,2830 -28280,19800 -2830,16980 5650,36770 -2830,45260 -22630,19800 -36770,36770 -25460,62230 22630,48080 73540,87680 124460,84850 z m 288510,189520 c -8490,-118800 135770,-158400 144260,-254570 8480,-113140 -130120,0 -206490,0 -48080,0 -70710,56570 -82030,115970 -2820,11310 -14140,31110 -33940,31110 -2830,59400 67890,96170 118800,113140 16970,5660 62230,19800 59400,-5650 z m 96170,70710 c 62230,39600 121630,87690 189510,121630 220630,110310 461060,127280 704310,166880 101830,14140 200830,-11310 302650,-5650 -5650,-11320 19800,-16980 8490,-28290 -31110,-33940 -76370,-25460 -115970,-33940 -104660,-28290 -209310,0 -311140,-22630 -178200,-39600 -345080,-79200 -503480,-172540 -25460,-14150 -48090,-33940 -67890,-56570 -36770,-53750 -39600,-115970 -82020,-164060 -8490,-11310 -28290,5660 -33950,11320 -53740,42420 -53740,113140 -96170,166880 -7630,7630 380,11950 10700,16970 4280,2080 8940,4280 13060,6880 4410,2790 8170,6050 10190,10090 l -28290,-16970 z m 1473670,322450 c 7130,800 14260,1460 21380,2040 120150,9840 240160,-9270 357650,-35980 226280,-56570 441250,-101830 659050,-169710 87680,-25460 212140,-48090 226280,-149910 5660,-28290 -33940,-96170 -84860,-73550 -79200,31120 -164050,39600 -229110,101830 -14140,11320 -39600,5660 -56570,14140 -73540,36780 -135770,93350 -209310,115980 -141430,48080 -280030,93340 -429940,118790 -110310,16980 -220630,-2820 -322450,39600 -2830,0 -2830,14150 0,14150 42420,16970 87680,36770 135770,33940 l -67890,-11320 z m 1431240,-562880 c -25450,-8480 -39600,-42420 -53740,-31110 -19800,16970 11320,73540 -42430,65060 -39600,-5660 -36770,-45260 -59400,-59400 -8480,-2830 -19800,-2830 -28280,0 -8490,2830 -16970,11310 -11320,16970 56580,73540 79200,172540 169720,203650 45250,16980 79200,-33940 93340,-76370 16970,-48080 -22630,-104650 -67890,-118800 z m 316800,-65050 c 1280,-4140 2060,-8160 2460,-12020 3160,-30290 -18840,-51170 -36400,-58700 -62230,-28280 -141430,16980 -206490,-45250 -11310,-8490 -36770,-2830 -56570,-2830 62230,76370 96170,169710 172550,231940 14140,8490 62220,19800 67880,-5660 8490,-50910 42430,-87680 45260,-138600 l 11310,31120 z m 353570,-531770 c -16970,-2830 -36770,-16970 -48090,-5660 -28280,28290 14150,73550 -5650,101830 -25460,36770 -67890,-2830 -104660,5660 -5660,2830 -28280,14140 -16970,25460 48080,42420 73540,96170 127280,124450 36770,16970 50920,-48080 70720,-70710 28280,-25460 73540,-50920 76370,-82030 2830,-45260 -56570,-82030 -99000,-107480 0,2820 0,5650 0,8480 z m 203650,-152740 c -70710,-14140 -175370,-42430 -223450,16970 31110,19800 33940,65060 67880,73540 31120,8490 53750,25460 65060,45260 8490,19800 25460,28290 33940,48090 36770,-28290 22630,-73550 39600,-107490 16970,16970 19800,-11310 25460,-14140 19800,-11320 22630,-59400 -8490,-62230 z m 39600,-308310 c 5660,-5660 5660,-22630 0,-28290 -25450,-28280 -104650,-67880 -62220,-84850 79200,-31120 192340,90510 138590,181020 -36770,56580 -104650,70720 -161220,36780 -16970,-11320 -50920,-14150 -50920,-45260 0,-14140 -5650,-31120 2830,-36770 36770,-36770 93340,11310 132940,-22630 z m 11320,-390340 c 90510,-22630 172540,14140 231940,79200 31110,33940 22630,93340 11310,121630 -19800,50910 -93340,67880 -166880,48080 -42430,-14140 -76370,-53740 -50920,-79200 28290,-22630 84860,-48080 59400,-90510 -8480,-14140 -5650,-36770 -25450,-42430 -19800,-2830 -45260,14140 -59400,-11310 -2830,-5660 -2830,-22630 0,-25460 z m 294170,-297000 c -14150,0 -28290,-2830 -36770,2830 -36780,31120 -33950,93340 -67890,118800 -42430,33940 -110310,8490 -169710,19800 -8490,2830 5650,25460 11310,33940 39600,42430 107490,31120 158400,67890 19800,14140 48090,-5660 50910,-16970 14150,-70720 59400,-104660 87690,-158400 8480,-16970 19800,-48090 -5660,-65060 -5660,-5660 -16970,-2830 -28280,-2830 z m -19800,-274370 c -65060,11320 -124460,-28280 -183860,2830 -2830,0 -8480,11320 -11310,16970 -5660,31120 31110,42430 48080,42430 79200,2830 144260,48090 217800,50920 16970,0 25460,-33950 14140,-53750 -16970,-31110 -39600,-67880 -84850,-59400 z m 19800,-226280 c 36770,-16970 45250,-53740 62220,-87680 11320,-22630 39600,-8490 39600,0 14150,84850 14150,175370 -25450,251740 -11320,19800 -36770,-8490 -42430,-11320 -48090,-42430 -115970,-28280 -169710,-65050 -22630,-14150 -48090,-56580 -19800,-59400 62220,-5660 101820,-42430 166880,-48090 -5660,5660 -8480,14140 -11310,19800 z m 79200,-164050 c -39600,0 -144260,-33950 -107490,19800 22630,33940 87690,8480 135770,-2830 14140,-5660 16970,-19800 8490,-28290 -11320,-16970 -22630,8490 -36770,11320 z m -96170,-297000 c -36780,-84860 -16980,-178200 -45260,-251740 -28290,-76370 -141430,-115970 -164060,-203660 -33940,-147080 181030,-124450 285690,-107480 45250,5660 107480,48080 84850,110310 -42430,130110 -141420,263060 -90510,401650 31110,79200 82030,178200 33940,248920 -33940,50910 -107480,67880 -175370,25450 -16970,-8480 -14140,-31110 -8480,-45250 31110,-59400 113140,-99000 79200,-178200 z m -885340,294170 c -1520,5340 -2250,11080 -2070,16630 480,15030 7420,28620 21870,28620 59400,0 118800,-8480 175370,-36770 33940,-16970 42430,-65050 39600,-84850 -16970,-141430 -39600,-277200 -22630,-412970 2830,-42430 -8480,-82030 5660,-118800 14140,-42430 50910,-76370 62230,-118800 8480,-36770 14140,-82030 0,-115970 -11320,-28280 -45260,-45260 -73550,-28280 -28280,16970 -36770,56570 -59390,84850 -14150,16970 -39600,16970 -53750,22630 -48080,16970 -104650,16970 -164050,28290 -33940,5650 -50920,45250 -16970,53740 42420,14140 96170,11310 130110,31110 84860,50920 79200,169710 50910,257400 -11310,31110 -36770,59400 -73540,50910 31110,76370 53740,155570 33940,243260 -2830,22630 -8480,48080 -16970,67880 -11310,25460 -53740,22630 -48080,59400 l 11310,-28280 z m 107490,313970 c 0,-11550 -760,-23480 -1570,-35470 -2390,-35050 -5420,-70810 7220,-100300 2830,-8490 2830,-25460 14150,-28290 19800,-11310 45250,0 53740,11310 76370,93350 59400,226290 -19800,305490 -16970,16970 -65060,14140 -90520,0 -88590,-49840 9780,-124080 35210,-188210 550,-1380 1090,-2750 1570,-4130 l 0,39600 z m -186690,305480 c 900,-4500 2350,-8740 3860,-12850 3200,-8810 6550,-17110 4630,-26750 79200,-5660 164050,8480 226280,59400 -28280,76370 -19800,169710 -76370,229110 -25460,25460 -84860,5660 -115970,-19800 -19800,-16970 -33940,-53740 -8490,-65060 56580,-28280 96170,-67880 67890,-124450 -25460,-50920 -93340,14140 -127280,-25460 -8490,-8490 -19800,-36770 -2830,-53740 2830,-2830 11310,0 16970,0 l 11310,39600 z m 152740,410140 c 5660,-5660 -8480,-22630 -16970,-25460 -82030,-25460 -169710,-90510 -251740,-48090 -14140,8490 14140,16980 19800,22630 48090,31120 107490,25460 158400,56570 22630,14150 67880,19800 90510,-5650 z m -113140,82020 c -36770,-2820 -87680,-82020 -99000,-28280 -11310,39600 -70710,36770 -53740,73540 14140,28290 62230,25460 90510,56570 39600,45260 82030,-11310 107490,-56570 11310,-22630 -22630,-45260 -45260,-45260 z m -274370,254570 c -25450,19800 -56570,11320 -76370,22630 -39600,25460 2830,45260 22630,70720 14140,16970 53740,25450 67890,45250 8480,16970 31110,16970 39600,36770 2820,8490 28280,-5650 39590,-11310 19800,-14140 19800,-48090 36780,-62230 25450,-22630 70710,-19800 87680,-48080 16970,-22630 16970,-65060 -5660,-90520 -36770,-42430 -84850,-84850 -144250,-76370 -48090,5660 -2830,67890 -25460,87690 -10110,8660 -25380,15090 -42430,19330 -16330,4060 -34300,6120 -50910,6120 l 50910,0 z m -186680,127290 c -5660,5650 -11320,11310 -19800,8480 -5660,22630 25460,45260 -2830,56570 -19800,5660 -42430,11320 -53740,25460 -11320,11320 5660,25460 16970,33940 8490,5660 19800,0 28290,2830 42420,28290 70710,93340 127280,76370 8490,-2830 16970,-11310 19800,-16970 8480,-28280 -8490,-48080 -25460,-70710 -8480,-8490 0,-25460 -5650,-36770 -22630,-39600 -45260,-107490 -96180,-87690 -5650,2830 0,11320 11320,8490 z m -130110,322450 c -36780,11320 -82030,-33940 -99000,-11310 -33950,39600 11310,124450 67880,101830 39600,-14150 99000,-14150 115970,-53750 25460,-62230 -28280,-124450 -73540,-172540 -14140,50920 39600,110310 -39600,115970 l 28290,19800 z m -1221930,362060 c -28290,-2830 -79200,-16980 -59400,-28290 152740,-90510 333760,-2830 494990,-59400 48090,-16970 93340,-22630 138600,-42430 291340,-113140 333770,-181020 396000,-198000 19800,-5650 113140,101830 87680,115970 -130110,62230 -226280,107490 -435600,186690 -195160,73540 -277190,73540 -483680,62230 -19800,0 -65050,-28290 -138590,-36770 z m -933420,-291340 c 65050,39600 251740,175370 579850,223450 25450,2830 107480,5660 110310,22630 2830,14140 -25460,25460 -36770,25460 -347910,-31120 -461050,-90520 -673190,-189520 -19800,-8480 -53750,-36770 -48090,-62220 5660,-19800 45260,-31120 67890,-19800 z m -181030,-99000 c -31110,5650 -56570,25450 -45260,56570 11320,36770 48090,96170 79200,56570 56570,-73540 73540,-166890 113140,-251740 -79200,-5660 -121620,90510 -175370,138600 l 28290,0 z m -206480,-118800 c -11320,11310 -22630,19800 -28290,31110 -11310,36770 22630,87690 56570,70720 33940,-16980 59400,-42430 73540,-90520 2830,-5660 19800,-16970 22630,-22630 8490,-25450 36770,-59400 28290,-70710 -56570,-59400 -101830,42430 -152740,82030 z m -127290,-243260 c -48080,-2830 -73540,45260 -67880,87690 2820,16970 25450,19800 31110,22630 42430,19800 158400,-127290 124460,-147090 -25460,-11310 -67890,16970 -107490,25460 5660,2830 14140,5660 19800,11310 z m -265880,-237590 c -22630,11310 -50920,11310 -65060,31110 -14140,22630 14140,42430 25460,42430 48080,2830 101830,-33950 118800,-82030 -25460,-8490 -53750,-16970 -79200,-8490 0,0 2830,14150 0,16980 z m -39600,-206490 c -39600,14140 -79200,28290 -115970,50920 -2830,5650 -5660,22620 0,25450 16970,11320 36770,28290 56570,19800 39600,-14140 113140,-45250 79200,-93340 -2830,-2830 -11320,-2830 -19800,-2830 z m -59400,-121630 c -8490,-2820 -22630,16980 -16970,33950 8480,22620 42430,28280 53740,16970 22630,-28290 -8490,-50920 -36770,-50920 z m 62230,-427110 c -8490,-39600 -39600,-113140 -82030,-70710 -22630,22630 -14140,79200 -65060,93340 -25450,8490 -8480,45260 8490,50920 65050,22620 155570,5650 138600,-73550 z m -209320,-345080 c 62230,8490 127290,-19800 186690,14140 2830,2830 5660,19800 0,25460 -45260,48090 -110310,11320 -166890,25460 -50910,11310 -113140,25460 -155570,-25460 -2820,-5660 -2820,-25460 0,-25460 43980,-17590 89710,-16390 135770,-14970 13200,400 26370,830 39600,830 l -39600,0 z m -144250,-865530 c 93340,5650 135770,-14150 226280,-16970 11320,0 59400,25450 67890,25450 -19800,56570 -22630,135770 -28290,192340 -11310,101830 -8480,200830 8490,305490 11310,82020 -11320,161220 -8490,243250 -2830,0 -8480,0 -8480,2830 -11320,62230 0,0 -33950,56570 -8480,16970 -33940,19800 -50910,14140 -25460,-11310 -48090,-42420 -39600,-70710 33940,-121630 56570,-113140 42430,-237600 -5660,-45250 -33940,-90510 -70710,-118800 -11320,-8480 -25460,-19800 -31120,-33940 -28280,-62230 0,-135770 -25460,-198000 -16970,-36770 -62220,-50910 -82020,-84850 -16970,-31120 2820,-59400 19800,-82030 2820,-5660 14140,-2830 19800,-2830 -2830,2830 -2830,2830 -5660,5660 z m 3083110,62230 c 124460,-25460 240430,-2830 362050,-19800 45260,-5660 31120,28280 31120,33940 -5660,73540 -84860,149910 -45260,226280 62230,121630 25460,240430 53740,367710 8490,42430 -14140,82030 -33940,101830 -62230,59400 -161230,28290 -226280,-19800 -31120,-22630 -8490,-59400 33940,-67890 28290,-5650 56570,0 76370,-8480 62230,-33940 67890,-115970 53740,-169710 -14140,-48090 -76370,-48090 -130110,-42430 45260,-16970 110310,-79200 65060,-110310 -33950,-22630 -84860,-28290 -118800,-53750 -22630,-11310 -19800,-53740 -39600,-79200 -25460,-36770 -70710,-56570 -101830,-93340 -16970,-19800 -14140,-56570 19800,-65050 z m 353570,823100 c -59400,5660 -87690,-14140 -147090,-8480 -31110,39600 93350,59400 183860,93340 19800,2830 42430,-84860 25460,-121630 -25460,-48080 -45260,8490 -62230,36770 z m 0,254570 c -59400,0 -107490,-42430 -166880,-50910 -8490,-2830 -42430,-2830 -28290,-25460 22630,-33940 65060,-39600 93340,-62230 25460,-25460 90520,14140 96170,70720 0,2820 16970,14140 22630,22620 5660,8490 2830,22630 2830,36770 -11320,-2820 -16970,8490 -19800,8490 z m -248910,220630 c -8490,5650 -28290,36770 -11320,42420 33950,16980 84860,39600 107490,48090 67880,25460 135770,-121630 132940,-200830 0,-31110 -59400,-16970 -90510,-39600 -28290,8490 -22630,50920 -36780,82030 -22620,42430 -65050,33940 -101820,67890 z m -36770,339420 c -2830,-14140 -19800,-31110 -16970,-33940 42420,-36770 96170,-39600 135770,-82030 33940,56570 -2830,101830 -33950,144260 -16970,22630 -56570,22630 -70710,0 -5660,-5660 -14140,-16970 -14140,-28290 z m -316800,130120 c -2830,-14150 8490,-25460 14140,-28290 25460,-8490 62230,5660 82030,-5660 31110,-19800 53740,-53740 79200,-79200 33940,-31110 87680,8490 110310,53750 11320,22620 0,50910 -11310,65050 -19800,22630 -31120,56570 -56570,70720 -25460,11310 -48090,25450 -70720,36770 -70710,28280 -130110,-48090 -147080,-113140 z m -769360,330930 c 11380,-340 22620,-840 33780,-1440 l 13490,-830 c 163230,-10580 303840,-49620 456210,-119350 33940,-16970 70710,-48090 104650,-65060 25460,-14140 50920,-50910 84860,-36770 50910,22630 65060,96170 33940,118800 -113140,90510 -246080,121630 -387510,155570 -147080,33940 -455390,53740 -441250,-67890 26300,0 65620,6510 101830,11460 11770,1620 23210,3060 33780,4070 9360,880 18040,1440 25620,1440 l -59400,0 z m -707140,-237590 c 107480,161220 299830,149910 455400,231940 5650,2830 5650,25450 -8490,25450 -135770,5660 -268710,-39600 -390340,-101820 -93340,-45260 -198000,-121630 -138600,-223460 25460,-45250 56570,31120 82030,67890 z m -132940,-243260 c 39600,-33940 70710,-67880 115970,-33940 8480,5660 5660,28290 2830,45260 -14150,50910 -70720,42420 -101830,76370 -14140,16970 -50910,19800 -59400,8480 -22630,-28280 8490,-70710 42430,-96170 z m -147090,-50910 c -19800,5660 -28280,31110 -36770,28280 -31110,-11310 2830,-33940 -5650,-59400 16970,2830 14140,-39600 33940,-33940 -5660,-76370 62230,-132940 124450,-110310 22630,5660 50920,36770 39600,67880 -28280,62230 -87680,93350 -155570,107490 z m -206480,-251740 c 3270,-4010 5490,-7990 6870,-11920 970,-2730 1540,-5420 1790,-8120 2220,-23460 -19090,-45540 -5830,-67650 8480,-16970 31110,-22630 48080,-28280 65060,-22630 135770,-19800 203660,-8490 25460,5660 59400,25460 36770,39600 -79200,50920 -181030,-16970 -254570,62230 -2140,2140 -17210,9120 -28110,2590 -3500,-2100 -6600,-5570 -8660,-11080 l 0,31120 z m 19800,-234770 c 50910,2830 121630,-79200 130110,-19800 2830,42430 -84850,48080 -130110,56570 0,-5660 0,-31110 0,-36770 z m -8490,-297000 c 62230,8490 127290,-19800 183860,14140 5660,2830 5660,19800 0,25460 -45260,48090 -107480,11320 -166880,25460 -50920,11310 -110320,25460 -152750,-25460 -5650,-5660 -5650,-25460 0,-25460 41890,-17620 88940,-16380 135770,-14960 13270,400 26500,820 39600,820 l -39600,0 z m 45260,-347910 c -48080,-50910 -70710,-107480 -104650,-161230 -31120,-53740 14140,-115970 -22630,-164050 -25460,-33940 -76370,-42430 -101830,-73540 -28290,-33950 -5660,-79200 28280,-90520 87690,-33940 186690,-28280 282860,-8480 28280,2830 59400,5650 87680,14140 48090,14140 84860,56570 65060,104660 -28290,65050 -82030,115970 -110310,181020 -36770,84860 11310,178200 -2830,271540 -14140,87690 -73540,147090 -158400,166890 -28290,5650 -59400,5650 -73540,-19800 -56570,-93340 76370,-104660 110310,-166890 8490,-16970 11320,-45250 0,-53740 z m 1600960,4794380 c 28280,-14140 50910,-19800 82020,-14140 28290,5660 42430,33940 56580,59400 93340,158400 132940,328110 189510,497820 -82030,19800 -164060,19800 -246090,16970 -16970,-2820 -33940,-25450 -36770,-45250 -25450,-101830 -56570,-251740 -96170,-412970 -5650,-19800 25460,-90510 50920,-101830 z m -251740,446910 c -5660,-124450 -16970,-203650 -5660,-305480 2830,-25460 16970,-48090 45260,-56570 39600,-11320 87680,2830 93340,39600 28280,149910 36770,265880 62230,398820 -22630,5660 -70720,2830 -84860,-11310 -31110,-42430 -76370,-62230 -110310,-96170 l 0,31110 z m -217800,-130110 c -11320,-70710 -19800,-138600 5660,-203660 16970,-36770 76370,-48080 98990,-8480 59400,99000 14150,220630 25460,330940 -65050,0 -67880,-67890 -99000,-107490 -8480,-8480 -25450,14150 -31110,-11310 z m -87690,-19800 c 8490,-53740 31120,-113140 -2820,-164060 -19800,-28280 -59400,-31110 -93350,-11310 -11310,5660 -19800,16970 -19800,28290 2830,53740 -25450,135770 19800,149910 25460,5660 59400,5660 87690,14140 2830,2830 16970,-8480 16970,-16970 2830,-53740 -5660,-53740 -8490,0 z m -175370,-596820 c -5650,-25460 19800,-28290 31120,-36770 22630,-14150 70710,2820 70710,25450 0,39600 16970,101830 -25460,124460 -22620,11310 -56570,0 -76370,25460 -2820,5650 -2820,19800 0,25450 25460,31120 67890,33950 93350,16970 59400,-45250 5650,-144250 59400,-183850 50910,-39600 93340,22630 110310,79200 14140,45250 -22630,59400 -56570,50910 0,16970 0,31120 0,48090 33940,-2830 82030,33940 101830,-2830 19800,-39600 19800,-93340 14140,-144260 50910,-5650 99000,16970 113140,50920 19800,53740 -36770,65050 -82030,76370 14140,56570 104660,56570 130110,25450 19800,-28280 -5650,-87680 14150,-118800 8480,-19790 42430,0 59400,16980 19800,25450 -31120,53740 -14150,73540 45260,53740 135770,11310 203660,22630 -45260,-93350 -42430,-200830 -39600,-305490 -144260,-19800 -291340,16980 -429940,-19800 -90510,-25450 -195170,-56570 -268710,-5650 -33940,22630 -48090,104650 -8490,155570 z m 560060,-226290 c 6300,-1570 11410,-1010 15730,940 4370,1970 7910,5360 11000,9360 l 860,1150 c 9780,13410 15190,32710 28980,30980 50910,-2830 99000,-31110 149910,-31110 31110,2830 76370,31110 87680,11310 42430,-67880 -39600,-141430 -110310,-152740 -42430,-8490 -93340,39600 -132940,14140 -73540,-42420 -152740,-73540 -237600,-50910 -36770,8490 -39600,50910 -67880,70710 -11320,8490 0,31120 8480,33950 36770,14140 76370,2820 113140,-16980 53760,-31760 99050,35650 148680,80140 3640,3260 7310,6390 11000,9360 2720,2190 5430,4270 8170,6240 1550,1130 3140,2220 4700,3260 l -9590,-4790 -30010,-15010 z m -472370,-480850 c -16970,5660 -50910,11320 -36770,36770 16970,28290 48080,11320 62230,-2830 22620,-19800 -22630,-16970 -25460,-33940 z m 568540,-118800 c 36770,-2830 48080,-48080 56570,-79200 14140,-53740 0,-110310 -31120,-152740 -8480,-11310 -42430,-25460 -62220,-11310 -16980,11310 -45260,16970 -39600,48080 -31120,0 -48090,22630 -67890,39600 -8490,8490 -14140,31120 -22630,33940 -178200,42430 -353570,-5650 -528940,22630 11320,31120 -31110,65060 2830,84860 11320,8490 50920,19800 56570,-14140 36770,8480 73550,33940 76370,76370 25460,-8490 39600,-39600 62230,-45260 42430,-11310 67890,25460 73540,65060 0,5650 2830,-2830 2830,-8490 0,16970 5660,39600 -2830,45260 -16970,11310 -50910,-5660 -62220,8480 -19800,16980 0,45260 25450,50920 31120,8480 70720,14140 82030,-2830 33940,-36770 0,-104660 31120,-149910 11310,-16970 50910,-19800 59390,0 19800,42420 19800,87680 -33940,118800 -2830,2820 0,16970 0,28280 87690,-2830 183860,16970 260230,-28280 33940,-22630 2830,-124460 62230,-130120 z M 5779240,5356900 c 147080,14150 294170,28290 441250,22630 -14140,84860 45260,209320 -50910,263060 -48090,28280 -107490,19800 -152740,2830 -67890,-25460 -56570,-121630 -84860,-186690 -5660,-19800 -31110,-28280 -48090,-36770 -48080,-22630 -110310,-22630 -144250,-73540 14140,0 25460,8480 39600,8480 z m -50920,-746730 c 155570,-42430 311140,56570 452570,-8490 19800,84860 22630,172540 2830,254570 -16970,73540 -130110,118800 -192340,70720 -87690,-67890 -96170,-198000 -195170,-260230 -22630,-14140 -56570,-14140 -84860,-19800 -14140,0 -45250,-14140 -28280,-31110 8480,-8490 31110,0 45250,-5660 z m 226290,-664710 c 2140,-7830 3540,-15780 4460,-23740 6410,-55370 -11140,-113130 20990,-160110 14150,-19800 56580,-22630 82030,-19800 14150,2820 25460,31110 25460,45250 8490,96170 53740,206490 -5660,274370 -59400,70720 -200820,39600 -302650,14140 -33940,-8480 -42430,-73540 -16970,-84850 62220,-25460 130110,-50920 192340,-84860 l 0,39600 z m 79200,-353570 c 42430,-42420 -25460,-70710 -2830,-90510 59400,-48090 113140,96170 82030,141430 -48090,70710 -152740,39600 -234770,31110 -25460,-2830 -45260,-48080 -19800,-56570 53740,-19800 115970,-2830 175370,-8490 0,0 -2830,-14140 0,-16970 z" id="path29" style="fill:#0077b9"/>
  <path d="m 4437260,9896380 270,140 30,0 c 1760,880 3620,1900 5450,3000 1630,970 3470,2150 5380,3420 10560,7100 19820,17060 19820,22060 l -20,0 40,1540 0,80 c 570,25250 -5850,51880 -12220,78360 -12600,52390 -25100,104300 24490,135080 l 240,160 c 29280,19520 67750,16770 103380,14220 12220,-880 24160,-1740 35420,-1740 l 130,0 0,30 c 28040,-10 58350,-6560 86880,-19040 6920,-3030 13790,-6450 20510,-10230 34240,-19220 64060,-47590 81580,-83950 l 17790,8580 c -19400,40280 -52180,71540 -89700,92610 -7220,4050 -14680,7770 -22290,11100 -30970,13550 -64040,20640 -94770,20670 l 0,30 -130,0 c -10780,0 -22270,820 -34010,1670 -38790,2770 -80640,5770 -115470,-17320 -61660,-38270 -47510,-97090 -33220,-156430 6060,-25180 12160,-50520 11660,-73350 l -60,-1800 -30,-270 c 0,-970 -5140,-1730 -11000,-5670 -1320,-860 -2820,-1820 -4450,-2790 l -40,-30 c -1420,-850 -2870,-1660 -4240,-2350 l 10,-10 -250,-130 8820,-17640 z m -523480,-59410 c 530,14020 2510,27550 5870,40050 5520,20540 14830,38040 27750,50020 12450,11550 28580,18090 48230,17340 6720,-260 13950,-1400 21700,-3480 l 510,-110 260,-50 0,-10 c 5130,-1110 10290,-2640 15380,-4500 5220,-1920 10380,-4200 15350,-6760 25290,-13100 47360,-34270 54810,-57780 l 270,-1060 20,0 c 2350,-9690 4100,-20530 5890,-31600 6780,-41860 14090,-86840 56220,-104190 l 390,-140 c 36460,-13250 65180,5380 95220,24910 25050,16280 51220,33290 81970,28360 l 3090,19490 c -38240,6120 -67650,-12990 -95820,-31300 -25720,-16730 -50310,-32700 -77440,-23010 -31830,13190 -38230,52440 -44140,88980 -1850,11470 -3680,22730 -6230,33210 l 0,70 -270,1070 -150,500 c -8930,29020 -35050,54650 -64790,70040 -5780,2980 -11690,5610 -17570,7760 -5990,2190 -12050,3990 -18010,5280 l -30,0 c -9020,2400 -17680,3740 -25940,4050 -25290,960 -46140,-7560 -62370,-22610 -15750,-14620 -26940,-35350 -33410,-59380 -3710,-13800 -5900,-28840 -6490,-44460 l 19730,-690 z m 340470,45590 -80,110 -150,270 c -2330,3120 -4530,6260 -6450,9300 -2070,3270 -3990,6580 -5650,9830 l 40,30 c -7800,15330 -11370,31520 -2430,41950 l 540,610 200,310 c 5560,8350 12570,15880 19460,23300 14310,15400 28420,30540 32790,53230 800,2960 1500,6000 2080,9120 5770,30280 -1290,57810 -16920,79740 -15430,21660 -39250,37730 -67230,45350 -3670,1010 -7190,1820 -10510,2460 l -40,0 c -46560,8720 -90860,7280 -133990,-320 -42750,-7530 -84360,-21170 -125880,-36920 l -50460,-19140 53940,0 8490,0 0,2500 c 38820,14550 77640,27070 117320,34070 40990,7240 82980,8620 126900,400 l 0,-10 c 3300,-630 6350,-1330 9050,-2060 23560,-6420 43540,-19800 56330,-37780 12600,-17670 18270,-40010 13580,-64660 -450,-2420 -1070,-5000 -1800,-7700 l -150,-810 c -3150,-17350 -15470,-30580 -27950,-44020 -7560,-8130 -15240,-16380 -21500,-25770 -14530,-17880 -10340,-41420 540,-62830 l 40,0 c 2020,-3960 4220,-7780 6510,-11390 2440,-3850 4900,-7410 7290,-10610 l 4430,3300 11660,8140 z m 179530,-83350 c 23090,2190 45950,-7460 68150,-16840 33110,-14000 65010,-27470 99810,-7410 39630,22190 49970,56900 45650,93890 -3180,27180 -14520,55440 -27680,80430 8320,-1780 16630,-3240 24930,-4710 30560,-5440 60820,-10810 81390,-29670 l 150,-150 c 8120,-7100 16400,-13030 24520,-18850 l -20,-10 c 14560,-10430 28720,-20580 38860,-35780 l 16390,10980 c -12180,18280 -27730,29420 -43730,40880 l -30,0 c -7760,5550 -15660,11220 -23000,17630 l -10,-10 c -24870,22670 -57820,28540 -91120,34470 -15200,2690 -30520,5410 -44310,9620 l 10,20 -1060,330 -24760,7730 13340,-22220 c 16390,-27330 32800,-61390 36480,-92930 3440,-29460 -4610,-57020 -35670,-74420 l -120,-70 c -26350,-15250 -53820,-3640 -82360,8430 -24450,10320 -49640,20980 -77660,18300 l 1850,-19640 z" id="path31" style="fill:#0077b9;fill-rule:nonzero"/>
  <path d="m 5887010,9872310 200,460 m 490580,49840 10,-40 m -798240,-165350 c 8710,-2330 17270,-4130 25560,-5370 11300,-1680 22430,-2410 33250,-2250 55740,860 102010,25700 134310,64440 l -7160,5950 c 9150,70 18430,1010 27540,2580 24580,4250 48310,13380 65620,23580 -800,-6950 -620,-13600 650,-19960 3380,-16920 14090,-31180 33660,-42610 37340,-24000 79400,-26030 114890,-11720 6940,2800 13640,6240 19990,10250 6390,4020 12440,8630 18000,13730 l 290,260 310,270 c 8460,8460 20030,21570 29210,36040 l -20,10 c 1860,2930 3600,5860 5140,8720 l 20,-10 c 1610,2970 3120,6020 4440,9090 l 0,50 60,150 50,80 c 7650,18370 9950,35990 9570,52420 -30,1560 -130,3070 -210,4610 10290,1360 20800,4050 30820,6580 l 40,0 c 18410,4680 34970,8870 38230,3150 l 90,-150 10,10 c 7220,-12730 10080,-30480 12950,-48370 5850,-36380 11820,-73370 51840,-86090 24260,-8340 49690,-8670 73260,-2790 20970,5230 40560,15470 56620,29420 16200,14060 28870,31910 35890,52280 6880,19960 8360,42300 2480,65830 l -30,120 c -10300,38640 -41790,53660 -71090,67630 -6440,3070 -12800,6080 -18080,8920 l -130,90 -40,20 -80,60 c -10370,7010 -21040,13240 -31870,18510 -10930,5330 -22340,9860 -34090,13470 -58820,18040 -123810,11610 -184490,-32710 -23140,27160 -54280,46520 -88960,60100 -53550,20980 -115560,28220 -168830,29660 l -470,-19740 c 51370,-1380 111030,-8300 162110,-28310 49620,-19450 91160,-51370 108580,-102880 2690,-12150 5390,-25620 5720,-39800 320,-13950 -1640,-28920 -8110,-44460 l 10,0 -20,-50 -10,10 c -1050,-2450 -2290,-4960 -3650,-7470 l 0,-40 c -1400,-2620 -2900,-5130 -4420,-7520 l -40,0 c -8220,-12960 -18760,-24880 -26510,-32630 l 10,-10 c -4730,-4340 -9810,-8230 -15110,-11560 -5330,-3360 -10990,-6260 -16830,-8620 -29950,-12080 -65520,-10300 -97110,10150 l -430,260 c -14280,8330 -21990,18180 -24240,29470 -2360,11810 810,25960 8260,42240 l 240,540 -17990,8210 -30,-80 0,-10 -180,-410 c -2440,-4860 -9520,-10860 -19570,-16880 -15520,-9310 -37170,-17720 -59740,-21620 -22070,-3810 -44860,-3280 -63130,5010 l -10,-10 c -10670,4870 -19910,12510 -26570,23610 l -5190,8640 -8510,-5310 c -7910,-4940 -14610,-10910 -21340,-16900 -12380,-11040 -25030,-22310 -44700,-24040 -18230,-150 -21000,-7870 -24780,-18650 l -20,0 c -1330,-3800 -2950,-8350 -7110,-12520 -8130,-8130 -12910,-15600 -17080,-22160 -6360,-9970 -11000,-17220 -31130,-20310 l -2200,-340 -1820,-1210 -200,-130 20,-20 -7000,-4570 -10,10 -7360,-4600 c -12100,-7420 -23710,-14010 -31440,-17910 -26120,-8230 -54900,-16440 -82050,-17110 -26120,-640 -51200,5730 -71610,26130 -30050,30050 -37200,69790 -33550,111660 3790,43400 19130,89420 33080,129860 l -18710,6420 c -14330,-41580 -30130,-88940 -34100,-134590 -4120,-47220 4300,-92380 39280,-127360 24840,-24850 54930,-32620 86080,-31850 29960,720 60450,9430 87950,18110 l 580,170 860,440 c 8500,4250 21310,11380 33980,19170 l 50,40 7400,4630 160,120 5620,3670 c 18790,3180 27700,9110 34380,17060 z m 513010,169940 c -1110,6920 -2480,13520 -3870,19770 l -90,400 -190,570 c -4900,14700 -11510,27950 -19480,39900 54990,40030 113720,45850 166820,29550 10510,-3210 20970,-7400 31210,-12390 10300,-5020 20210,-10780 29590,-17130 l 120,-80 430,-270 690,-430 c 6660,-3620 13060,-6690 19530,-9760 25310,-12060 52510,-25050 60470,-54720 4880,-19550 3660,-38090 -2030,-54580 -5860,-17010 -16490,-31980 -30100,-43780 -13720,-11910 -30500,-20680 -48490,-25170 -20040,-5000 -41610,-4710 -62170,2380 l -230,70 c -28540,9010 -33530,39950 -38420,70360 -3170,19710 -6330,39270 -15280,55050 l 0,30 -90,160 c -10720,18750 -34190,12820 -60280,6200 l 0,-10 c -9330,-2360 -19120,-4870 -28140,-6120 z m -656920,-3130 c 1530,-15420 -3960,-31920 -9620,-49020 -3850,-11580 -7800,-23440 -10070,-35960 l -1730,-9550 9500,-1890 c 16240,-3240 26360,-3100 35860,980 l 50,0 c 9180,3940 16090,10830 26780,21520 l 140,200 240,250 40,30 c 14880,15830 36500,27460 57680,38840 34420,18500 67870,36490 77390,72660 l -19110,5030 c -7340,-27890 -37050,-43850 -67630,-60290 -22610,-12150 -45670,-24560 -62720,-42700 l 10,-10 -30,-20 -20,20 c -9090,-9080 -14950,-14940 -20590,-17360 l 10,-20 c -3650,-1550 -8000,-2010 -14240,-1340 2010,7900 4600,15750 7150,23420 6350,19160 12500,37630 10550,57150 l -19640,-1940 z m -120750,209450 c 34520,-12180 62010,-35570 89870,-59290 9840,-8370 19750,-16800 28930,-24020 l 200,-110 90,-70 30,-40 c 1810,-1340 4250,-2920 7120,-4580 2700,-1560 5800,-3180 9030,-4690 18670,-8730 44880,-15030 56740,-200 10590,13250 23280,18140 35820,22940 l 10,-30 c 12650,4850 25210,9690 37020,21490 l -14010,14010 c -8900,-8900 -19430,-12950 -30040,-17010 l 0,-50 c -15040,-5770 -30270,-11640 -44190,-29050 -4360,-5440 -20660,0 -33000,5770 -2800,1310 -5390,2660 -7560,3900 -1950,1120 -3660,2240 -5040,3260 l 10,10 c -10400,8170 -19440,15870 -28400,23480 -29320,24970 -58240,49570 -96060,62920 l -6570,-18640 z m 437260,-312940 c -28390,-30950 -67480,-50490 -114010,-51210 -9620,-140 -19720,540 -30180,2100 -5440,810 -10950,1840 -16510,3130 2800,4130 6210,8600 10930,13330 7280,7280 9720,14190 11750,19950 l 0,30 c 1100,3140 1900,5410 6700,5410 l 810,30 c 26370,2190 41580,15740 56480,29020 3660,3250 7320,6460 11060,9410 8090,-10180 18070,-17550 29260,-22650 l 30,-40 c 10420,-4740 21840,-7430 33680,-8510 z" id="path33" style="fill:#0077b9;fill-rule:nonzero"/>
  <path d="m 7639170,9749300 270,130 30,0 c 1760,880 3630,1920 5450,3010 1640,970 3470,2150 5380,3420 10570,7090 19820,17060 19820,22060 l -20,0 40,1540 0,70 c 570,25260 -5840,51890 -12210,78370 -12610,52380 -25100,104300 24480,135080 l 270,200 c 29020,19350 65660,16760 101470,14220 12610,-890 25150,-1780 37300,-1780 l 140,0 0,30 c 27960,-10 58220,-6970 86570,-19810 6960,-3150 13800,-6650 20350,-10440 33870,-19560 63010,-47880 79130,-82830 l 17950,8290 c -17930,38860 -50000,70160 -87170,91630 -7240,4170 -14660,7980 -22130,11370 -30790,13940 -63900,21500 -94700,21520 l 0,40 -140,0 c -11710,0 -23770,850 -35890,1710 -39010,2760 -78900,5590 -113580,-17380 l -10,20 c -61660,-38270 -47510,-97090 -33220,-156440 6060,-25180 12160,-50510 11660,-73340 l -60,-1800 -30,-270 c 0,-970 -5130,-1740 -11000,-5670 -1320,-870 -2820,-1830 -4450,-2800 l -40,-30 c -1410,-840 -2870,-1660 -4240,-2350 l 10,-10 -250,-120 8820,-17640 z m -719140,66880 c 10900,990 20230,1990 29430,2970 50430,5380 99760,10650 162140,-5470 l 0,-20 320,-80 c 5260,-1520 10550,-3330 15710,-5420 5190,-2090 10400,-4510 15480,-7180 25170,-13300 46730,-33130 52080,-56380 l 160,-580 c 3370,-11460 5820,-24200 8250,-36900 7920,-41330 15870,-82670 56870,-99560 l 50,0 c 36990,-15130 66010,4110 96460,24310 24800,16460 50740,33660 81070,28820 l 3090,19490 c -37960,6070 -67170,-13300 -95080,-31830 -26000,-17250 -50790,-33690 -78090,-22540 l 10,10 c -31100,12810 -38040,48920 -44960,85020 -2470,12980 -5000,26010 -8650,38490 -6910,29360 -32450,53490 -62060,69130 -5630,2980 -11460,5670 -17330,8030 -5930,2390 -11860,4450 -17650,6110 l -310,90 -240,40 c -66010,17100 -117140,11650 -169410,6070 -10130,-1080 -20310,-2170 -29120,-2970 l 1780,-19650 z m 428450,-60630 c -7970,10630 -15940,22520 -19750,33950 -3250,9780 -3400,19420 2680,27630 l 20,-20 230,300 -20,10 c 5760,7350 12610,14300 19310,21100 16080,16290 31520,31950 36040,56040 l 10,0 c 410,1850 800,3710 1120,5510 l 0,40 c 5770,31720 -1330,60630 -17750,83410 -16270,22590 -41670,39050 -72600,46070 l 0,10 -50,0 c -1830,430 -3910,840 -6220,1260 l 0,20 c -46550,8720 -90850,7290 -133990,-320 -42750,-7530 -84360,-21170 -125880,-36920 l -50470,-19140 53950,0 11320,0 0,3590 c 37860,14100 75790,26160 114480,32980 41020,7240 83010,8620 126960,390 l 70,0 c 1580,-280 3410,-670 5420,-1120 l 40,0 c 26160,-5940 47480,-19620 60960,-38330 13340,-18520 19090,-42230 14350,-68380 l -10,0 c -280,-1570 -610,-3180 -970,-4750 l -80,-430 c -3310,-18260 -16770,-31890 -30780,-46080 -7010,-7110 -14180,-14380 -20790,-22830 l -30,0 -230,-300 -80,-150 c -10780,-14380 -10910,-30180 -5710,-45780 4660,-14000 13700,-27610 22680,-39590 l 15770,11830 z m 287670,-106220 c 23470,3350 46730,-6090 69300,-15260 32540,-13210 63940,-25940 98200,-6190 l 0,-10 c 39630,22200 49980,56910 45650,93900 -3180,27170 -14570,55440 -27720,80420 8310,-1770 16670,-3240 24970,-4710 30570,-5430 60820,-10810 81390,-29660 l 160,-160 c 8110,-7090 16390,-13030 24510,-18840 l -10,-10 c 14550,-10440 28720,-20580 38850,-35780 l 16390,10980 c -12180,18270 -27730,29420 -43730,40880 l -30,0 c -7750,5540 -15660,11210 -23000,17630 l -10,-10 c -24870,22680 -57810,28540 -91120,34460 -15200,2700 -30520,5410 -44310,9620 l 20,30 -1070,330 -24770,7730 13350,-22230 c 16390,-27330 32800,-61380 36480,-92930 3460,-29460 -4620,-57030 -35660,-74410 l -130,-80 c -25900,-14990 -52950,-4010 -80990,7370 -24990,10150 -50760,20610 -79500,16510 l 2780,-19580 z" id="path35" style="fill:#ffffff;fill-rule:nonzero"/>
  <path d="m 5756000,8932940 -360,-130 -80,0 c -8540,-3270 -17450,-7210 -26420,-11730 -8920,-4500 -17840,-9540 -26410,-15030 -45690,-29290 -83670,-72440 -74630,-119940 l 80,-390 c 2080,-9040 6180,-15790 11640,-20540 5230,-4580 11520,-7170 18310,-8140 6240,-880 12930,-400 19600,1130 16330,3780 33410,14170 43760,25940 l 430,470 c 16140,17590 33430,32390 51490,44550 18110,12180 37100,21850 56620,29140 100870,37730 216900,13510 306040,-41970 l 10950,16440 -510,360 -30,20 c -18820,13480 -37540,29580 -50060,48030 -12000,17690 -18360,37830 -13380,60220 l -19270,4250 c -6320,-28470 1460,-53650 16330,-75540 1060,-1560 2140,-3120 3260,-4650 -81940,33820 -175860,42880 -260210,11330 -20960,-7840 -41330,-18200 -60720,-31240 -19440,-13080 -37910,-28870 -55050,-47560 l -40,-40 -460,-520 -130,-150 c -7820,-8950 -20900,-16930 -33430,-19810 -4390,-1020 -8660,-1350 -12400,-830 -3180,450 -5980,1550 -8120,3420 -2370,2070 -4240,5330 -5330,10000 -6980,37720 26250,73960 65930,99380 8050,5160 16360,9880 24620,14030 8200,4130 16500,7790 24580,10880 l -10,20 290,120 -6880,18480 z m -439150,20120 c -1460,-13200 -2930,-28670 -1410,-43090 1680,-16000 7020,-30550 19650,-39570 7480,-5960 16530,-12200 25570,-18460 8960,-6200 17970,-12450 24510,-17640 l -10,-10 c 8460,-7520 9450,-22700 10470,-38440 1540,-24120 3190,-49360 27690,-64440 l 10,30 c 16410,-10770 37020,-11540 57010,-12290 13830,-500 27390,-1040 36920,-5050 13010,-7720 23850,-20750 34690,-33800 16120,-19390 32320,-38890 57700,-46140 l 110,0 240,-60 50,-50 c 4780,-1280 9810,-2170 14990,-2660 5040,-480 10120,-580 15130,-360 l 50,0 c 25530,1210 51850,11050 73370,23970 l 240,150 c 50130,32030 105070,61270 160750,75100 54660,13580 110260,12290 162900,-16010 15040,-8580 28610,-19050 41960,-29360 21610,-16650 42760,-32980 70070,-42080 l 500,-150 c 16160,-4400 32370,-8090 47860,-9200 16280,-1160 32010,470 46410,6870 l 690,310 c 38320,20640 48420,56310 59460,95360 l 1940,6840 80,280 c 3220,12900 15500,20740 31380,25440 17940,5310 40380,6650 60860,6650 l 0,19800 c -21930,0 -46190,-1500 -66430,-7500 -22260,-6600 -39730,-18590 -44980,-39580 l -1870,-6580 c -9840,-34800 -18850,-66590 -49710,-83260 -10900,-4690 -23280,-5830 -36420,-4900 -14120,1000 -28970,4380 -43810,8410 -23920,8020 -43730,23320 -63960,38900 -13950,10770 -28150,21720 -44340,30970 l -200,110 c -57600,31010 -117970,32550 -177110,17860 -58050,-14420 -114790,-44550 -166400,-77490 l 0,10 c -19060,-11440 -42130,-20150 -64180,-21180 l 0,-20 c -4220,-180 -8380,-100 -12390,280 -3890,370 -7830,1080 -11740,2130 l -10,-30 -90,20 10,30 c -19580,5590 -33800,22710 -47940,39720 -12080,14550 -24180,29100 -40320,38510 l -260,150 -710,320 c -13110,5820 -28770,6410 -44800,7010 -17360,640 -35290,1310 -47040,9150 l -310,230 c -15790,9720 -17100,29710 -18320,48820 -1290,19880 -2530,39050 -17060,51960 l -430,320 c -7560,6040 -16790,12450 -25990,18800 -9160,6350 -18360,12720 -24920,17970 l -420,340 c -7150,5110 -10330,14650 -11460,25490 -1300,12440 50,26690 1410,38930 l -19640,2160 z m 970430,-205140 -10,-30 m 69610,157160 c -17230,-3980 -32260,-11760 -46800,-19300 -16950,-8780 -33230,-17210 -49990,-17210 l 0,-30 c -28630,0 -44870,31200 -59640,59600 l -40,0 c -3720,7140 -7390,14190 -10980,20340 l -17080,-9910 c 3640,-6260 7080,-12850 10570,-19550 l -20,-10 c 17400,-33460 36520,-70200 77190,-70200 l 0,-40 c 21470,0 39880,9530 59030,19460 13440,6970 27330,14150 42170,17580 l -4410,19270 z m -933730,37380 c 16910,-4510 26490,-19030 36030,-33530 12450,-18920 24930,-37860 52360,-43000 l 110,-30 380,-70 40,0 c 7160,-1230 14500,-1900 21840,-1970 7410,-70 14670,440 21610,1500 l 0,50 c 36870,5700 70030,27050 85690,62860 l -18110,7890 c -12730,-29110 -40070,-46550 -70580,-51260 l -10,40 c -6180,-950 -12380,-1400 -18440,-1350 -6100,60 -12360,640 -18630,1720 l 0,10 -380,70 0,-10 c -19140,3640 -29300,19020 -39400,34370 -11640,17680 -23300,35380 -47470,41820 l -5040,-19110 z" id="path37" style="fill:#0077b9;fill-rule:nonzero"/>
  <path d="m 7180690,8933440 c -44020,-6870 -87540,-4780 -130430,2830 -43190,7660 -85810,20940 -127710,36300 l -6820,-18550 c 42930,-15730 86650,-29340 131120,-37240 44750,-7930 90370,-10090 136850,-2830 l -3010,19490 z m -260740,-59210 810,70 c 4170,300 8470,280 12740,-70 4330,-340 8610,-1010 12720,-1960 20860,-4760 39190,-16550 45940,-31760 l 190,-420 c 3660,-7330 4640,-13610 3610,-18800 -1130,-5620 -4810,-10400 -10080,-14130 -6030,-4280 -14090,-7260 -23000,-8840 -16780,-2980 -35950,-920 -50410,6790 l -9290,-17390 c 18460,-9840 42430,-12560 63110,-8890 11650,2060 22520,6200 31040,12250 9280,6580 15870,15410 18050,26340 1820,9170 430,19610 -5210,31070 l 10,0 -70,130 -120,290 -10,-10 c -9490,20860 -33030,36620 -59350,42640 -5140,1180 -10400,2000 -15600,2430 -5240,420 -10570,450 -15820,60 l -80,0 -800,-60 1620,-19740 z m 446260,118380 -560,-160 0,-10 c -11310,-3150 -23310,-6120 -35290,-9110 -61890,-15340 -124090,-30800 -159180,-88040 -2310,-3410 -4590,-6990 -6760,-10730 l -10,10 c -18670,-32020 -29340,-72270 -27690,-109720 290,-6670 1010,-13200 2100,-19650 -4920,-1190 -10010,-2570 -15120,-4090 l -50,0 c -9180,-2740 -18560,-6040 -27770,-9900 l -40,0 c -43630,-18310 -83670,-49310 -89720,-95800 -8560,4230 -17360,8270 -26290,12320 -41890,19010 -86570,39290 -102330,82650 l -18550,-6730 c 18620,-51210 67200,-73270 112750,-93940 13630,-6170 27010,-12250 38610,-18690 l 200,-110 15370,-8540 -700,17550 c -1810,45130 36330,75410 78320,93030 l -10,10 c 8500,3580 17240,6640 25820,9200 l 0,10 c 4730,1410 9490,2700 14170,3820 7320,-22940 20740,-43070 41570,-57270 1990,-1360 4120,-2700 6330,-3990 l 490,-290 400,-180 370,-160 c 4710,-2120 9870,-4070 15280,-5760 l 40,0 c 5430,-1680 11120,-3110 16850,-4190 30630,-5720 65910,-2340 88850,20600 l 110,110 -20,30 c 7030,6680 13710,14230 19820,22420 6110,8210 11690,17140 16550,26510 25210,48570 31450,109910 -1490,156000 l -16080,-11450 c 28100,-39320 22210,-92750 20,-135510 -4360,-8400 -9370,-16410 -14860,-23790 -5430,-7300 -11400,-14050 -17720,-20010 l -230,-190 -110,-110 c -17580,-17570 -46080,-19880 -71210,-15190 -5100,960 -10040,2200 -14640,3620 l 0,10 c -4610,1440 -9010,3100 -13030,4910 l -100,50 c -1500,900 -3000,1870 -4490,2880 -26260,17910 -38280,48010 -39730,80660 -1480,33690 8170,69960 25040,98890 l 0,30 c 1890,3240 3910,6460 6040,9570 l 270,420 c 30830,50660 89210,65150 147280,79550 11880,2950 23770,5910 35870,9270 l 50,0 550,160 -5340,19020 z m -116570,-213230 c 7550,10560 13640,20490 17500,30920 l 0,30 c 4050,10980 5690,22400 4080,35370 l -19650,-2400 c 1210,-9630 0,-18060 -2970,-26120 l -10,0 c -3210,-8640 -8460,-17160 -15030,-26360 l 16080,-11440 z" id="path39" style="fill:#ffffff;fill-rule:nonzero"/>
  <path d="m 4678610,8973130 c 46050,-8400 91310,-6210 136110,2030 44890,8250 89180,22540 133380,38220 l -6570,18640 c -43460,-15430 -86900,-29450 -130380,-37440 -43080,-7920 -86460,-10000 -130400,-1770 l -3420,-18260 c -37830,41220 -92260,54740 -146230,68100 -12100,3010 -24220,6010 -35620,9190 l 0,10 -560,160 -5340,-19020 560,-160 40,0 c 12190,-3400 24200,-6380 36200,-9350 58140,-14410 116850,-28970 149940,-79700 l 10,10 c 1580,-2490 3220,-5270 4900,-8280 16340,-29170 26350,-66060 24880,-100280 -1440,-33030 -13760,-63490 -41800,-81320 l -30,-40 c -1370,-880 -2840,-1760 -4320,-2580 l -230,-140 -560,-340 -110,-70 c -3520,-2030 -7450,-3840 -11620,-5330 -4230,-1510 -8950,-2790 -13980,-3750 -24830,-4770 -54390,-1080 -71980,16500 l -100,100 -20,-20 c -5990,6000 -11710,12780 -16970,20100 -5290,7360 -10220,15420 -14590,23910 -21990,42790 -29270,96260 -1220,135520 l -16080,11450 c -32980,-46150 -25190,-107470 -250,-156010 4780,-9280 10210,-18170 16130,-26380 5940,-8270 12330,-15860 18990,-22530 l 0,-50 100,-100 c 22710,-22700 59370,-27740 89700,-21910 5770,1100 11500,2670 16930,4620 5460,1950 10540,4270 14980,6870 l 110,70 440,250 c 1790,990 3580,2050 5280,3150 21640,13770 35580,33360 43350,55780 4550,-920 9230,-2020 13870,-3260 8630,-2290 17330,-5110 25700,-8440 41870,-16600 79930,-46820 78120,-91960 l -650,-16680 14910,7460 10,-10 c 9400,4440 19370,8710 29540,13050 50060,21360 104880,44790 122540,100300 l -18800,5950 c -14880,-46830 -65380,-68410 -111470,-88080 -5730,-2450 -11400,-4900 -16930,-7340 -5680,46960 -46010,78190 -90010,95640 -9350,3720 -18770,6790 -27930,9220 -4670,1250 -9300,2350 -13870,3300 1370,7270 2230,14700 2550,22260 1640,37930 -9390,78670 -27370,110790 -1670,2970 -3530,6090 -5560,9280 l -40,70 c -4410,6760 -9190,12930 -14260,18600 z m 266210,-19730 c -40190,0 -77550,-15930 -93580,-47740 l -20,10 c -5780,-10910 -7280,-20980 -5550,-29910 2020,-10440 8350,-18940 17310,-25330 8160,-5810 18600,-9860 29870,-12010 l 40,0 c 21130,-4010 46050,-1440 65060,8700 l -9290,17390 c -14940,-7960 -34930,-9930 -52090,-6680 l 0,10 c -8630,1650 -16400,4590 -22140,8670 -4940,3510 -8350,7900 -9330,12970 -910,4670 80,10340 3600,16990 l 80,190 c 12310,24620 42790,36940 76040,36940 l 0,19800 z m -317700,-102600 c -6210,7450 -10590,15580 -13390,24300 -2820,8810 -4090,18430 -4090,28800 l -19800,0 c 0,-12250 1580,-23870 5100,-34840 3540,-11060 9110,-21380 17010,-30860 l 15170,12600 z" id="path41" style="fill:#0077b9;fill-rule:nonzero"/>
  <g id="_46912696">
   <path id="_46918952" d="m 4353650,9084930 0,-636430 0,-25450 25460,0 492170,0 0,50910 -466710,0 0,610970 -50920,0 z m -118800,79190 0,-845730 0,-25460 25460,0 707140,0 0,50920 -681680,0 0,820270 -50920,0 z" style="fill:#0077b9;fill-rule:nonzero"/>
   <path id="_46917864" d="m 3694600,10272900 0,-715620 0,-25450 25460,0 924930,0 0,50910 -899470,0 0,690160 -50920,0 z m -115970,79200 0,-922100 0,-25360 25460,0 1100300,0 0,50710 -1074840,0 0,896750 -50920,0 z" style="fill:#0077b9;fill-rule:nonzero"/>
   <path id="_46916776" d="m 5100390,10253100 0,-794820 0,-25450 25450,0 1080510,0 0,50910 -1055050,0 0,769360 -50910,0 z m -118800,79200 0,-1001300 0,-25460 25460,0 1298300,0 0,50920 -1272850,0 0,975840 -50910,0 z" style="fill:#0077b9;fill-rule:nonzero"/>
   <path id="_46915528" d="m 5188070,9084930 0,-636430 10,-25450 25450,0 1080500,0 0,50910 -1055040,0 0,610970 -50920,0 z m -115970,79190 0,-845730 0,-25360 25460,0 1295470,0 0,50720 -1270010,0 0,820370 -50920,0 z" style="fill:#0077b9;fill-rule:nonzero"/>
   <path id="_46914736" d="m 6612240,9084930 0,-636430 0,-15550 15560,0 885340,0 15550,0 0,15550 0,636430 0,15550 -15550,0 -885340,0 -15560,0 0,-15550 z m 31120,-620870 0,605310 854220,0 0,-605310 -854220,0 z" style="fill:#ffffff;fill-rule:nonzero"/>
   <path id="_25245768" d="m 6745240,10190900 0,-712800 -10,-15570 15510,20 1405790,0 15490,-20 10,15570 0,712800 -10,15550 -15490,0 -1405790,0 -15510,0 10,-15550 z m 31000,-697240 0,681680 1374790,0 0,-681680 -1374790,0 z" style="fill:#ffffff;fill-rule:nonzero"/>
  </g>
 </g>
</svg>